<?xml version="1.0" encoding="UTF-8"?>
<svg width="19px" height="20px" viewBox="0 0 19 20" version="1.1" xmlns="http://www.w3.org/2000/svg" xmlns:xlink="http://www.w3.org/1999/xlink">
    <!-- Generator: Sketch 43.1 (39012) - http://www.bohemiancoding.com/sketch -->
    <title>safe-locker</title>
    <desc>Created with Sketch.</desc>
    <defs></defs>
    <g id="Page-1" stroke="none" stroke-width="1" fill="none" fill-rule="evenodd">
        <g id="1.-Existing" transform="translate(-327.000000, -462.000000)" fill-rule="nonzero">
            <g id="Group-11" transform="translate(74.000000, 239.000000)">
                <g id="Group-20-Copy-4" transform="translate(22.000000, 75.000000)">
                    <g id="safe-locker" transform="translate(231.000000, 148.000000)">
                        <path d="M13.5450101,7.97229773 C13.5038649,7.96116505 13.4688176,7.93404531 13.4475709,7.8968932 L13.2550034,7.56058252 C13.2107128,7.48317152 13.2369662,7.38420712 13.3137365,7.33954693 L14.0755338,6.89592233 C13.8002264,6.49987055 13.4618851,6.1587055 13.0691115,5.88110032 L12.6292872,6.64925566 C12.6080405,6.68640777 12.5729932,6.71352751 12.531848,6.72466019 C12.4907669,6.73566343 12.4469257,6.72990291 12.4100811,6.70847896 L12.0765541,6.51430421 C11.9997838,6.46964401 11.9735304,6.37061489 12.0178209,6.29326861 L12.4584797,5.5236246 C12.0258446,5.31902913 11.5634257,5.19430421 11.0828412,5.15268608 L11.0828412,6.04064725 C11.0828412,6.13003236 11.0110135,6.20245955 10.9223682,6.20245955 L10.5372331,6.20245955 C10.4485878,6.20245955 10.3767601,6.13003236 10.3767601,6.04064725 L10.3767601,5.15268608 C9.89623986,5.19436893 9.43382095,5.31902913 9.00112162,5.5236246 L9.44184459,6.29326861 C9.46309122,6.33042071 9.46886824,6.37456311 9.45789189,6.41598706 C9.44685135,6.45747573 9.41995608,6.49281553 9.3830473,6.51430421 L9.04952027,6.70847896 C8.97275,6.75307443 8.87460473,6.72660194 8.83031419,6.64925566 L8.39042568,5.88110032 C7.99758784,6.1587055 7.65931081,6.49987055 7.38393919,6.89592233 L8.14580068,7.33954693 C8.22257095,7.38420712 8.24888851,7.48317152 8.20459797,7.56058252 L8.01203041,7.8968932 C7.99071959,7.93404531 7.95573649,7.96116505 7.91459122,7.97229773 C7.87351014,7.98330097 7.82966892,7.97754045 7.79282432,7.9561165 L7.02955068,7.51171521 C6.82658446,7.94796117 6.70295608,8.41423948 6.66161824,8.89883495 L7.54229392,8.89883495 C7.63093919,8.89883495 7.70276689,8.97126214 7.70276689,9.06064725 L7.70276689,9.44899676 C7.70276689,9.53838188 7.63093919,9.61080906 7.54229392,9.61080906 L6.66161824,9.61080906 C6.70295608,10.0953398 6.82658446,10.5616181 7.02955068,10.9979288 L7.79282432,10.553657 C7.86959459,10.5088673 7.96780405,10.5354693 8.01209459,10.6128803 L8.20466216,10.9491909 C8.22597297,10.986343 8.23168581,11.0305502 8.22070946,11.0719094 C8.20966892,11.1133981 8.18283784,11.1487379 8.14592905,11.1702265 L7.38406757,11.6137217 C7.65943919,12.0098382 7.99771622,12.3510032 8.39048986,12.6286084 L8.83037838,11.8603883 C8.87460473,11.7830421 8.97281419,11.7563754 9.04958446,11.801165 L9.38311149,11.9953398 C9.42002027,12.0167638 9.44685135,12.0521036 9.45795608,12.0935922 C9.46893243,12.1350809 9.46315541,12.1792233 9.44190878,12.2163754 L9.00118581,12.9860194 C9.43382095,13.1906796 9.89623986,13.3154045 10.3768243,13.3570227 L10.3768243,12.468932 C10.3768243,12.3795469 10.448652,12.3071197 10.5372973,12.3071197 L10.9224324,12.3071197 C11.0110777,12.3071197 11.0829054,12.3795469 11.0829054,12.468932 L11.0829054,13.3570227 C11.5634257,13.3153398 12.0258446,13.1906796 12.4585439,12.9860194 L12.0178851,12.2163754 C11.9735946,12.1389644 11.999848,12.04 12.0766182,11.9953398 L12.4101453,11.801165 C12.4469899,11.7796764 12.4908311,11.7738511 12.5319122,11.7849838 C12.5730574,11.7961165 12.6081047,11.8232362 12.6293514,11.8603883 L13.0691757,12.6286084 C13.4619493,12.3509385 13.8002905,12.0097735 14.075598,11.6137217 L13.3138007,11.1702265 C13.2768919,11.1487379 13.2500608,11.1133981 13.2390203,11.0719094 C13.2280439,11.0304854 13.2337568,10.986343 13.2550676,10.9491909 L13.4476351,10.6128803 C13.4918615,10.535534 13.5900068,10.5088673 13.6668412,10.553657 L14.4300507,10.9979288 C14.6330169,10.5616828 14.7566453,10.0954045 14.7979831,9.61080906 L13.9173716,9.61080906 C13.8287264,9.61080906 13.7568986,9.53838188 13.7568986,9.44899676 L13.7568986,9.06064725 C13.7568986,8.97126214 13.8287264,8.89883495 13.9173716,8.89883495 L14.7979831,8.89883495 C14.7566453,8.41430421 14.6330169,7.94796117 14.4300507,7.51171521 L13.6668412,7.9561165 C13.6298682,7.97754045 13.586027,7.98330097 13.5450101,7.97229773 Z M10.7297365,10.8666667 C9.84835473,10.8666667 9.1312973,10.1436246 9.1312973,9.25482201 C9.1312973,8.36601942 9.84835473,7.64297735 10.7297365,7.64297735 C11.6111824,7.64297735 12.3283041,8.36608414 12.3283041,9.25482201 C12.3283682,10.1436246 11.6112466,10.8666667 10.7297365,10.8666667 Z" id="Shape" fill="#333333"></path>
                        <path d="M17.8078784,0 L2.26780405,0 L2.26780405,4.07676375 L1.33706081,4.07676375 L1.33706081,0 L1.20239189,0 C0.567753378,0 0.053277027,0.518834951 0.053277027,1.1587055 L0.053277027,17.3507443 C0.053277027,17.9907443 0.567753378,18.5094498 1.20239189,18.5094498 L1.33706081,18.5094498 L1.33706081,14.4327508 L2.26780405,14.4327508 L2.27447973,19.6220065 C2.27447973,19.800712 2.41819932,19.9456311 2.59542568,19.9456311 L4.49966216,19.9456311 C4.67688851,19.9456311 4.82060811,19.800712 4.82060811,19.6220065 L4.82060811,18.5095146 L14.4785777,18.5095146 L14.4785777,19.6220065 C14.4785777,19.800712 14.6222973,19.9456311 14.7995236,19.9456311 L16.7037601,19.9456311 C16.8809865,19.9456311 17.0247061,19.800712 17.0247061,19.6220065 L17.0247061,18.5095146 L17.8078784,18.5095146 C18.4425811,18.5095146 18.9569932,17.9907443 18.9569932,17.3508091 L18.9569932,1.1587055 C18.9569932,0.518834951 18.4425169,0 17.8078784,0 Z M2.26780405,13.1382524 L1.33706081,13.1382524 L1.33706081,5.37126214 L2.26780405,5.37126214 L2.26780405,13.1382524 Z M10.7297365,14.0767638 C8.09284459,14.0767638 5.94764189,11.913657 5.94764189,9.25475728 C5.94764189,6.59592233 8.09284459,4.43275081 10.7297365,4.43275081 C13.3665642,4.43275081 15.5118311,6.59592233 15.5118311,9.25475728 C15.5118311,11.913657 13.3665642,14.0767638 10.7297365,14.0767638 Z" id="Shape" fill="#999999"></path>
                        <path d="M10.7297365,8.35488673 C10.2376622,8.35488673 9.83737838,8.75857605 9.83737838,9.25475728 C9.83737838,9.75100324 10.2376622,10.1546278 10.7297365,10.1546278 C11.221875,10.1546278 11.622223,9.75100324 11.622223,9.25475728 C11.6222872,8.75857605 11.221875,8.35488673 10.7297365,8.35488673 Z" id="Shape" fill="#999999"></path>
                    </g>
                </g>
            </g>
        </g>
    </g>
</svg>