<svg id="Layer_1" data-name="Layer 1" xmlns="http://www.w3.org/2000/svg" viewBox="0 0 181.26 112"><defs><style>.cls-1{fill:#363c74;}.cls-2{fill:#afbd22;}</style></defs><title>Artboard 1</title><path class="cls-1" d="M39.71,16.16A42.24,42.24,0,0,0,24.54,12.8c-11.1,0-16.29,6.82-16.29,20.47,0,14.05,5.09,20.37,16,20.37a26.86,26.86,0,0,0,11.61-3V39.88H23.42l.41-5.8H43.59V53.94C37.88,57.2,31.36,60,23.22,60,7.23,60,0,51.39,0,33.77,0,17.48,8.55,6.38,24.54,6.38c7.23,0,12.63,1.22,17.52,3.77Z"/><polygon class="cls-1" points="66.02 13.3 66.02 29.5 89.14 29.5 89.14 35.4 66.02 35.4 66.02 53.22 91.88 53.22 92.6 59.34 57.97 59.34 57.97 7.2 92.5 7.2 91.88 13.3 66.02 13.3"/><path class="cls-1" d="M173.11,44c0-5.19-3.46-8-10.69-8H150.5V53.84H161c8.45,0,12.12-3.56,12.12-9.88m-7.94-13.54c2.44-3.67,3.57-6.52,3.57-9.37,0-5-2.34-8.25-10.49-8.25H150.5V30.41Zm11.3-10.59c0,3.46-1.53,7.33-5,11.61,6.92,2,9.78,6.21,9.78,11.61,0,9.78-6.72,16.29-21.08,16.29H142.56V7.19h17.31c12,0,16.6,4.79,16.6,12.63"/><path class="cls-1" d="M118.49,17.45a3.77,3.77,0,1,1,3.77,3.77,3.77,3.77,0,0,1-3.77-3.77"/><path class="cls-2" d="M115.72,85.15c11.47,0,21.22-5.55,24.34-13h-6.72C129.26,76.33,122.88,79,115.72,79s-13.54-2.69-17.62-6.89H91.37c3.12,7.47,12.88,13,24.35,13"/><path class="cls-2" d="M112.6,34.37c-4.7-4.71-9.6-10-9.6-16.71C103,5.31,112.88,0,121.92,0a33.15,33.15,0,0,1,7.65.84V8.2A19.19,19.19,0,0,0,123.89,7C118.06,6.5,110.5,9.1,110.5,17.44c0,4.2,3.39,7.93,7.17,11.74,5.27,5.5,12,11.34,12,19.2,0,12.35-9.88,17.63-18.92,17.66a33.24,33.24,0,0,1-7.65-.84V57.83A19.17,19.17,0,0,0,108.81,59c5.82.52,13.39-2.08,13.39-10.42,0-5.08-4.92-9.46-9.6-14.22"/><path class="cls-1" d="M10.48,108.86a2.78,2.78,0,0,1-1,2.3,4.56,4.56,0,0,1-2.92.84,6.85,6.85,0,0,1-3-.65v-2.12a12.58,12.58,0,0,0,1.84.69,5.45,5.45,0,0,0,1.38.2,2,2,0,0,0,1.15-.29,1,1,0,0,0,.4-.85.94.94,0,0,0-.18-.56,2,2,0,0,0-.52-.48,13.13,13.13,0,0,0-1.4-.73,6.62,6.62,0,0,1-1.48-.89,3.36,3.36,0,0,1-.79-1A2.83,2.83,0,0,1,3.58,104a2.78,2.78,0,0,1,1-2.25,4,4,0,0,1,2.68-.82,6.31,6.31,0,0,1,1.6.2,11.08,11.08,0,0,1,1.59.56l-.74,1.78A10.77,10.77,0,0,0,8.26,103a4.61,4.61,0,0,0-1.11-.14,1.47,1.47,0,0,0-1,.3,1,1,0,0,0-.35.79,1,1,0,0,0,.14.53,1.53,1.53,0,0,0,.45.43,13.69,13.69,0,0,0,1.45.75,5.76,5.76,0,0,1,2.07,1.45A2.82,2.82,0,0,1,10.48,108.86Z"/><path class="cls-1" d="M23.76,101.09v7a4,4,0,0,1-.53,2.09,3.48,3.48,0,0,1-1.54,1.38,5.52,5.52,0,0,1-2.39.48,4.57,4.57,0,0,1-3.23-1.06A3.77,3.77,0,0,1,14.92,108v-6.94H17.2v6.59a2.76,2.76,0,0,0,.5,1.83,2.08,2.08,0,0,0,1.66.58A2,2,0,0,0,21,109.5a2.78,2.78,0,0,0,.5-1.84v-6.58Z"/><path class="cls-1" d="M36.4,104.44a3.29,3.29,0,0,1-1.09,2.66,4.65,4.65,0,0,1-3.09.92h-1v3.83H29V101.09H32.4a4.58,4.58,0,0,1,3,.84A3.07,3.07,0,0,1,36.4,104.44Zm-5.16,1.71H32a2.5,2.5,0,0,0,1.58-.42,1.46,1.46,0,0,0,.52-1.21,1.5,1.5,0,0,0-.44-1.19,2.06,2.06,0,0,0-1.37-.38h-1Z"/><path class="cls-1" d="M46.89,111.85h-6.2V101.09h6.2V103H43v2.36h3.65v1.87H43V110h3.92Z"/><path class="cls-1" d="M54.29,107.72v4.13H52V101.09h3.14a5.37,5.37,0,0,1,3.25.8,3.19,3.19,0,0,1,.53,4.12,3.45,3.45,0,0,1-1.48,1.16l3.17,4.69H58.07l-2.57-4.13Zm0-1.86H55a2.81,2.81,0,0,0,1.6-.36,1.29,1.29,0,0,0,.52-1.13,1.18,1.18,0,0,0-.53-1.09A3.2,3.2,0,0,0,55,103h-.69Z"/><path class="cls-1" d="M71.57,111.85l-.78-2.56H66.86l-.78,2.56H63.62L67.42,101h2.79L74,111.85Zm-1.33-4.48q-1.08-3.48-1.22-3.94c-.09-.3-.16-.55-.2-.72q-.24.94-1.39,4.66Z"/><path class="cls-1" d="M87.5,111.85H84.6l-4.68-8.15h-.07q.14,2.16.14,3.08v5.07h-2V101.09h2.88l4.68,8.06h.05q-.11-2.1-.11-3v-5.1H87.5Z"/><path class="cls-1" d="M102.33,111.85h-2.9l-4.68-8.15h-.07q.14,2.16.14,3.08v5.07h-2V101.09h2.88l4.68,8.06h.05q-.11-2.1-.11-3v-5.1h2.05Z"/><path class="cls-1" d="M116.36,101.09v7a4,4,0,0,1-.53,2.09,3.48,3.48,0,0,1-1.54,1.38,5.52,5.52,0,0,1-2.39.48,4.57,4.57,0,0,1-3.23-1.06,3.77,3.77,0,0,1-1.15-2.91v-6.94h2.28v6.59a2.76,2.76,0,0,0,.5,1.83,2.08,2.08,0,0,0,1.66.58,2,2,0,0,0,1.62-.59,2.78,2.78,0,0,0,.5-1.84v-6.58Z"/><path class="cls-1" d="M128.08,111.85l-.78-2.56h-3.92l-.78,2.56h-2.46l3.8-10.81h2.79l3.81,10.81Zm-1.33-4.48q-1.08-3.48-1.22-3.94c-.09-.3-.16-.55-.2-.72q-.24.94-1.39,4.66Z"/><path class="cls-1" d="M138.1,111.85h-2.28V103h-2.92v-1.9H141V103H138.1Z"/><path class="cls-1" d="M149.27,111.85h-4.9v-1.3l1.31-.6v-7l-1.31-.6v-1.3h4.9v1.3L148,103v7l1.31.6Z"/><path class="cls-1" d="M163.45,106.45a5.84,5.84,0,0,1-1.33,4.11,5.75,5.75,0,0,1-7.6,0,5.86,5.86,0,0,1-1.33-4.12,5.78,5.78,0,0,1,1.33-4.11,5,5,0,0,1,3.81-1.42,4.9,4.9,0,0,1,3.8,1.43A5.86,5.86,0,0,1,163.45,106.45Zm-7.86,0a4.49,4.49,0,0,0,.68,2.72,2.39,2.39,0,0,0,2,.91q2.73,0,2.73-3.63t-2.72-3.64a2.41,2.41,0,0,0-2.05.92A4.48,4.48,0,0,0,155.59,106.45Z"/><path class="cls-1" d="M177.8,111.85h-2.9l-4.68-8.15h-.07q.14,2.16.14,3.08v5.07h-2V101.09h2.88l4.68,8.06h.05q-.11-2.1-.11-3v-5.1h2.05Z"/></svg>