<?xml version="1.0" encoding="utf-8"?>
<!-- Generator: Adobe Illustrator 17.0.2, SVG Export Plug-In . SVG Version: 6.00 Build 0)  -->
<!DOCTYPE svg PUBLIC "-//W3C//DTD SVG 1.1//EN" "http://www.w3.org/Graphics/SVG/1.1/DTD/svg11.dtd">
<svg version="1.1" id="Layer_1" xmlns="http://www.w3.org/2000/svg" xmlns:xlink="http://www.w3.org/1999/xlink" x="0px" y="0px"
	 width="297.539px" height="82.829px" viewBox="0 0 297.539 82.829" enable-background="new 0 0 297.539 82.829"
	 xml:space="preserve">
<g>
	<g>
		<defs>
			<path id="SVGID_1_" d="M19.455,54.506c1.778-2.032,3.956-4.34,6.536-6.787c-6.846-0.436-15.067-3.107-24.58-9.856
				C1.41,37.862,8.821,47.928,19.455,54.506 M17.62,29.065c-0.5,0.401-0.819,1.013-0.819,1.696c0,0.625,0.261,1.192,0.688,1.586
				l3.695,3.839l0.008-0.011c0.386,0.374,0.921,0.609,1.495,0.609c0.631,0,1.192-0.272,1.592-0.691
				c2.91-2.533,9.73-6.668,20.011-2.111c0.645-0.373,1.3-0.746,1.965-1.112c-3.715-3.577-9.502-7.891-15.801-7.891
				C23.601,24.979,19.612,27.348,17.62,29.065 M1.41,23.702c26.117-18.53,42.474-6.358,47.453-1.471
				C49.261,22.704,49.854,23,50.521,23c0.659,0,1.256-0.296,1.652-0.769l8.693-9.018c0.018-0.021,0.041-0.042,0.057-0.06
				l0.001-0.009c0.369-0.386,0.602-0.909,0.602-1.485c0-0.606-0.247-1.154-0.645-1.546c-2.771-2.913-10-8.623-24.148-8.623
				C17.764,1.491,1.41,23.702,1.41,23.702"/>
		</defs>
		<clipPath id="SVGID_2_">
			<use xlink:href="#SVGID_1_"  overflow="visible"/>
		</clipPath>
		
			<radialGradient id="SVGID_3_" cx="-457.1591" cy="448.517" r="0.3721" gradientTransform="matrix(-206.5849 -292.5108 -250.8053 177.1158 18165.1621 -213138.0938)" gradientUnits="userSpaceOnUse">
			<stop  offset="0" style="stop-color:#FFFFFF"/>
			<stop  offset="0.1875" style="stop-color:#FBFDFE"/>
			<stop  offset="0.2672" style="stop-color:#F2F8FD"/>
			<stop  offset="0.3263" style="stop-color:#E5F0FA"/>
			<stop  offset="0.3754" style="stop-color:#D3E6F7"/>
			<stop  offset="0.4182" style="stop-color:#BBDBF3"/>
			<stop  offset="0.4566" style="stop-color:#9DCDEF"/>
			<stop  offset="0.4918" style="stop-color:#78BFEA"/>
			<stop  offset="0.5235" style="stop-color:#47B0E4"/>
			<stop  offset="0.5333" style="stop-color:#2BACE2"/>
			<stop  offset="0.541" style="stop-color:#2DA6D9"/>
			<stop  offset="0.6247" style="stop-color:#287BA4"/>
			<stop  offset="0.7075" style="stop-color:#1F5D80"/>
			<stop  offset="0.7877" style="stop-color:#164969"/>
			<stop  offset="0.8647" style="stop-color:#0F3B5A"/>
			<stop  offset="0.937" style="stop-color:#0C3352"/>
			<stop  offset="1" style="stop-color:#0B304F"/>
		</radialGradient>
		<polygon clip-path="url(#SVGID_2_)" fill="url(#SVGID_3_)" points="21.414,82.829 -23.574,19.132 41.52,-26.835 86.51,36.863 		
			"/>
	</g>
	<g>
		<defs>
			<path id="SVGID_4_" d="M19.455,54.506c1.778-2.032,3.956-4.34,6.536-6.787c-6.846-0.436-15.067-3.107-24.58-9.856
				C1.41,37.862,8.821,47.928,19.455,54.506 M17.62,29.065c-0.5,0.401-0.819,1.013-0.819,1.696c0,0.625,0.261,1.192,0.688,1.586
				l3.695,3.839l0.008-0.011c0.386,0.374,0.921,0.609,1.495,0.609c0.631,0,1.192-0.272,1.592-0.691
				c2.91-2.533,9.73-6.668,20.011-2.111c0.645-0.373,1.3-0.746,1.965-1.112c-3.715-3.577-9.502-7.891-15.801-7.891
				C23.601,24.979,19.612,27.348,17.62,29.065 M9.806,14.521c-5.203,4.84-8.396,9.181-8.396,9.181
				c26.117-18.53,42.474-6.358,47.453-1.471C49.261,22.704,49.854,23,50.521,23c0.659,0,1.256-0.296,1.652-0.769l8.693-9.018
				c0.018-0.021,0.041-0.042,0.057-0.06l0.001-0.009c0.369-0.386,0.602-0.909,0.602-1.485c0-0.606-0.247-1.154-0.645-1.546
				c-1.005-1.057-2.599-2.484-4.897-3.873c-1.035-0.028-2.068-0.042-3.093-0.042C36.449,6.198,21.483,9.887,9.806,14.521"/>
		</defs>
		<clipPath id="SVGID_5_">
			<use xlink:href="#SVGID_4_"  overflow="visible"/>
		</clipPath>
		
			<radialGradient id="SVGID_6_" cx="-457.1895" cy="448.4601" r="0.3719" gradientTransform="matrix(-197.5982 -279.7864 -239.8949 169.4111 17352.1289 -203863.9375)" gradientUnits="userSpaceOnUse">
			<stop  offset="0" style="stop-color:#FFFFFF"/>
			<stop  offset="0.1875" style="stop-color:#FBFDFE"/>
			<stop  offset="0.2672" style="stop-color:#F2F8FD"/>
			<stop  offset="0.3263" style="stop-color:#E5F0FA"/>
			<stop  offset="0.3754" style="stop-color:#D3E6F7"/>
			<stop  offset="0.4182" style="stop-color:#BBDBF3"/>
			<stop  offset="0.4566" style="stop-color:#9DCDEF"/>
			<stop  offset="0.4918" style="stop-color:#78BFEA"/>
			<stop  offset="0.5235" style="stop-color:#47B0E4"/>
			<stop  offset="0.5333" style="stop-color:#2BACE2"/>
			<stop  offset="0.541" style="stop-color:#2DA6D9"/>
			<stop  offset="0.6247" style="stop-color:#287BA4"/>
			<stop  offset="0.7075" style="stop-color:#1F5D80"/>
			<stop  offset="0.7877" style="stop-color:#164969"/>
			<stop  offset="0.8647" style="stop-color:#0F3B5A"/>
			<stop  offset="0.937" style="stop-color:#0C3352"/>
			<stop  offset="1" style="stop-color:#0B304F"/>
		</radialGradient>
		<polygon clip-path="url(#SVGID_5_)" fill="url(#SVGID_6_)" points="21.414,82.829 -21.839,21.59 41.52,-23.151 84.775,38.09 		"/>
	</g>
	<g>
		<defs>
			<path id="SVGID_7_" d="M1.951,38.566c1.864,2.369,8.361,10.176,17.106,15.695c1.719-1.968,3.821-4.215,6.305-6.582
				c-6.533-0.542-14.286-3.123-23.187-9.28C2.099,38.451,2.027,38.51,1.951,38.566 M17.62,29.065
				c-0.5,0.401-0.819,1.013-0.819,1.696c0,0.625,0.261,1.192,0.688,1.586l3.695,3.839l0.008-0.011
				c0.386,0.374,0.921,0.609,1.495,0.609c0.631,0,1.192-0.272,1.592-0.691c2.857-2.488,9.492-6.526,19.475-2.343
				c0.703-0.413,1.418-0.818,2.145-1.218c-3.722-3.505-9.344-7.554-15.444-7.554C23.601,24.979,19.612,27.348,17.62,29.065
				 M41.604,17.02c3.368,1.725,5.8,3.78,7.258,5.212C49.261,22.704,49.854,23,50.521,23c0.659,0,1.256-0.296,1.652-0.769l8.41-8.727
				C53.843,13.996,47.534,15.238,41.604,17.02"/>
		</defs>
		<clipPath id="SVGID_8_">
			<use xlink:href="#SVGID_7_"  overflow="visible"/>
		</clipPath>
		
			<radialGradient id="SVGID_9_" cx="-457.1611" cy="448.546" r="0.372" gradientTransform="matrix(-227.016 -321.4399 -275.6096 194.6323 19952.5918 -234226.4531)" gradientUnits="userSpaceOnUse">
			<stop  offset="0" style="stop-color:#FFFFFF"/>
			<stop  offset="0.1875" style="stop-color:#FBFDFE"/>
			<stop  offset="0.2672" style="stop-color:#F2F8FD"/>
			<stop  offset="0.3263" style="stop-color:#E5F0FA"/>
			<stop  offset="0.3754" style="stop-color:#D3E6F7"/>
			<stop  offset="0.4182" style="stop-color:#BBDBF3"/>
			<stop  offset="0.4566" style="stop-color:#9DCDEF"/>
			<stop  offset="0.4918" style="stop-color:#78BFEA"/>
			<stop  offset="0.5235" style="stop-color:#47B0E4"/>
			<stop  offset="0.5333" style="stop-color:#2BACE2"/>
			<stop  offset="0.541" style="stop-color:#2DA6D9"/>
			<stop  offset="0.6247" style="stop-color:#287BA4"/>
			<stop  offset="0.7075" style="stop-color:#1F5D80"/>
			<stop  offset="0.7877" style="stop-color:#164969"/>
			<stop  offset="0.8647" style="stop-color:#0F3B5A"/>
			<stop  offset="0.937" style="stop-color:#0C3352"/>
			<stop  offset="1" style="stop-color:#0B304F"/>
		</radialGradient>
		<polygon clip-path="url(#SVGID_8_)" fill="url(#SVGID_9_)" points="21.464,81.899 -17.254,27.066 41.072,-14.12 79.789,40.699 		
			"/>
	</g>
	<g>
		<defs>
			<path id="SVGID_10_" d="M10.501,47.684c2.552,2.312,5.544,4.703,8.852,6.764c1.763-2.02,3.922-4.312,6.476-6.73
				c-3.684-0.258-7.764-1.158-12.225-2.994C12.522,45.715,11.489,46.703,10.501,47.684 M23.461,36.642
				c0.312-0.124,0.592-0.31,0.817-0.548c0.086-0.078,0.174-0.156,0.267-0.232C24.18,36.123,23.819,36.383,23.461,36.642
				 M27.237,34.023c3.611-1.99,9.308-3.428,16.915-0.104c0.659-0.381,1.331-0.761,2.01-1.139c-1.923-1.84-4.391-3.866-7.188-5.394
				C34.745,29.4,30.835,31.651,27.237,34.023 M50.117,22.963C50.247,22.989,50.383,23,50.521,23c0.595,0,1.14-0.241,1.53-0.637
				C51.401,22.557,50.753,22.76,50.117,22.963"/>
		</defs>
		<clipPath id="SVGID_11_">
			<use xlink:href="#SVGID_10_"  overflow="visible"/>
		</clipPath>
		
			<radialGradient id="SVGID_12_" cx="-457.1604" cy="448.5778" r="0.3714" gradientTransform="matrix(-244.6215 -346.3682 -296.9836 209.7264 21498.9414 -252401.4062)" gradientUnits="userSpaceOnUse">
			<stop  offset="0" style="stop-color:#FFFFFF"/>
			<stop  offset="0.1875" style="stop-color:#FBFDFE"/>
			<stop  offset="0.2672" style="stop-color:#F2F8FD"/>
			<stop  offset="0.3263" style="stop-color:#E5F0FA"/>
			<stop  offset="0.3754" style="stop-color:#D3E6F7"/>
			<stop  offset="0.4182" style="stop-color:#BBDBF3"/>
			<stop  offset="0.4566" style="stop-color:#9DCDEF"/>
			<stop  offset="0.4918" style="stop-color:#78BFEA"/>
			<stop  offset="0.5235" style="stop-color:#47B0E4"/>
			<stop  offset="0.5333" style="stop-color:#2BACE2"/>
			<stop  offset="0.541" style="stop-color:#2DA6D9"/>
			<stop  offset="0.6247" style="stop-color:#287BA4"/>
			<stop  offset="0.7075" style="stop-color:#1F5D80"/>
			<stop  offset="0.7877" style="stop-color:#164969"/>
			<stop  offset="0.8647" style="stop-color:#0F3B5A"/>
			<stop  offset="0.937" style="stop-color:#0C3352"/>
			<stop  offset="1" style="stop-color:#0B304F"/>
		</radialGradient>
		<polygon clip-path="url(#SVGID_11_)" fill="url(#SVGID_12_)" points="24.329,74.016 -4.617,33.042 38.224,2.789 67.17,43.77 		"/>
	</g>
	<g>
		<defs>
			<path id="SVGID_13_" d="M11.381,48.468c2.617,2.302,5.652,4.628,8.979,6.587c1.927-2.176,4.3-4.666,7.123-7.273
				c-3.78-0.064-7.999-0.809-12.652-2.576C13.623,46.304,12.475,47.392,11.381,48.468 M32.432,32.191
				c3.471-0.602,7.833-0.234,13.034,2.346c0.521-0.299,1.048-0.595,1.58-0.885c-1.763-1.786-4.114-3.869-6.838-5.546
				C37.488,29.377,34.894,30.75,32.432,32.191"/>
		</defs>
		<clipPath id="SVGID_14_">
			<use xlink:href="#SVGID_13_"  overflow="visible"/>
		</clipPath>
		
			<radialGradient id="SVGID_15_" cx="-457.1544" cy="448.5764" r="0.3723" gradientTransform="matrix(-244.6346 -346.3867 -296.9996 209.7376 21501.8262 -252411.6562)" gradientUnits="userSpaceOnUse">
			<stop  offset="0" style="stop-color:#FFFFFF"/>
			<stop  offset="0.1875" style="stop-color:#FBFDFE"/>
			<stop  offset="0.2672" style="stop-color:#F2F8FD"/>
			<stop  offset="0.3263" style="stop-color:#E5F0FA"/>
			<stop  offset="0.3754" style="stop-color:#D3E6F7"/>
			<stop  offset="0.4182" style="stop-color:#BBDBF3"/>
			<stop  offset="0.4566" style="stop-color:#9DCDEF"/>
			<stop  offset="0.4918" style="stop-color:#78BFEA"/>
			<stop  offset="0.5235" style="stop-color:#47B0E4"/>
			<stop  offset="0.5333" style="stop-color:#2BACE2"/>
			<stop  offset="0.541" style="stop-color:#2DA6D9"/>
			<stop  offset="0.6247" style="stop-color:#287BA4"/>
			<stop  offset="0.7075" style="stop-color:#1F5D80"/>
			<stop  offset="0.7877" style="stop-color:#164969"/>
			<stop  offset="0.8647" style="stop-color:#0F3B5A"/>
			<stop  offset="0.937" style="stop-color:#0C3352"/>
			<stop  offset="1" style="stop-color:#0B304F"/>
		</radialGradient>
		<polygon clip-path="url(#SVGID_14_)" fill="url(#SVGID_15_)" points="23.251,71.855 -1.319,37.076 35.179,11.302 59.747,46.092 		
			"/>
	</g>
	<g>
		<defs>
			<path id="SVGID_16_" d="M48.992,39.213c-0.004,0.006-0.006,0.01-0.01,0.012c-0.005-0.002-0.009-0.002-0.009-0.002
				c-3.094,3.074-10.899,9.271-22.984,8.496c-2.58,2.447-4.756,4.755-6.534,6.787c5.16,3.185,11.079,5.564,17.277,5.564
				c14.06,0,21.287-5.64,24.096-8.566c0.434-0.398,0.708-0.966,0.708-1.604c0-0.67-0.311-1.283-0.793-1.676l-8.523-8.85
				c-0.396-0.488-1.008-0.807-1.688-0.807C49.93,38.568,49.386,38.82,48.992,39.213 M44.288,33.982
				c1.941,0.859,4.004,2.031,6.186,3.578c0,0-1.591-2.161-4.219-4.693C45.589,33.236,44.934,33.609,44.288,33.982"/>
		</defs>
		<clipPath id="SVGID_17_">
			<use xlink:href="#SVGID_16_"  overflow="visible"/>
		</clipPath>
		
			<radialGradient id="SVGID_18_" cx="-457.1429" cy="448.5941" r="0.3716" gradientTransform="matrix(-255.1381 -361.2591 -309.7514 218.7429 22429.2949 -263248.5938)" gradientUnits="userSpaceOnUse">
			<stop  offset="0" style="stop-color:#FFFFFF"/>
			<stop  offset="0.1875" style="stop-color:#FBFDFE"/>
			<stop  offset="0.2672" style="stop-color:#F2F8FD"/>
			<stop  offset="0.3263" style="stop-color:#E5F0FA"/>
			<stop  offset="0.3754" style="stop-color:#D3E6F7"/>
			<stop  offset="0.4182" style="stop-color:#BBDBF3"/>
			<stop  offset="0.4566" style="stop-color:#9DCDEF"/>
			<stop  offset="0.4918" style="stop-color:#78BFEA"/>
			<stop  offset="0.5235" style="stop-color:#47B0E4"/>
			<stop  offset="0.5333" style="stop-color:#2BACE2"/>
			<stop  offset="0.541" style="stop-color:#2DA6D9"/>
			<stop  offset="0.6247" style="stop-color:#287BA4"/>
			<stop  offset="0.7075" style="stop-color:#1F5D80"/>
			<stop  offset="0.7877" style="stop-color:#164969"/>
			<stop  offset="0.8647" style="stop-color:#0F3B5A"/>
			<stop  offset="0.937" style="stop-color:#0C3352"/>
			<stop  offset="1" style="stop-color:#0B304F"/>
		</radialGradient>
		<polygon clip-path="url(#SVGID_17_)" fill="url(#SVGID_18_)" points="33.457,79.912 6.632,41.924 47.532,13.039 74.356,51.021 		
			"/>
	</g>
	<g>
		<defs>
			<path id="SVGID_19_" d="M25.989,47.719c-2.58,2.447-4.756,4.755-6.534,6.787c2.539,1.572,5.257,2.949,8.106,3.938
				c2.934-4.015,6.799-8.453,11.597-12.787C35.58,47.103,31.179,48.055,25.989,47.719 M44.288,33.982
				c1.815,0.805,3.736,1.879,5.764,3.287c0.045-0.031,0.084-0.059,0.13-0.088c-0.573-0.732-1.959-2.416-3.927-4.312
				C45.589,33.236,44.934,33.609,44.288,33.982"/>
		</defs>
		<clipPath id="SVGID_20_">
			<use xlink:href="#SVGID_19_"  overflow="visible"/>
		</clipPath>
		
			<radialGradient id="SVGID_21_" cx="-457.1436" cy="448.5836" r="0.3725" gradientTransform="matrix(-245.6944 -347.8875 -298.2863 210.6463 21602.3652 -253501.2031)" gradientUnits="userSpaceOnUse">
			<stop  offset="0" style="stop-color:#FFFFFF"/>
			<stop  offset="0.1875" style="stop-color:#FBFDFE"/>
			<stop  offset="0.2672" style="stop-color:#F2F8FD"/>
			<stop  offset="0.3263" style="stop-color:#E5F0FA"/>
			<stop  offset="0.3754" style="stop-color:#D3E6F7"/>
			<stop  offset="0.4182" style="stop-color:#BBDBF3"/>
			<stop  offset="0.4566" style="stop-color:#9DCDEF"/>
			<stop  offset="0.4918" style="stop-color:#78BFEA"/>
			<stop  offset="0.5235" style="stop-color:#47B0E4"/>
			<stop  offset="0.5333" style="stop-color:#2BACE2"/>
			<stop  offset="0.541" style="stop-color:#2DA6D9"/>
			<stop  offset="0.6247" style="stop-color:#287BA4"/>
			<stop  offset="0.7075" style="stop-color:#1F5D80"/>
			<stop  offset="0.7877" style="stop-color:#164969"/>
			<stop  offset="0.8647" style="stop-color:#0F3B5A"/>
			<stop  offset="0.937" style="stop-color:#0C3352"/>
			<stop  offset="1" style="stop-color:#0B304F"/>
		</radialGradient>
		<polygon clip-path="url(#SVGID_20_)" fill="url(#SVGID_21_)" points="29.679,72.922 7.404,41.381 39.956,18.393 62.231,49.93 		
			"/>
	</g>
	<g>
		<defs>
			<path id="SVGID_22_" d="M41.589,59.828c10.906-1.086,16.772-5.758,19.239-8.324c0.434-0.398,0.708-0.966,0.708-1.604
				c0-0.67-0.311-1.283-0.793-1.676l-5.585-5.799C49.403,47.742,44.961,53.764,41.589,59.828"/>
		</defs>
		<clipPath id="SVGID_23_">
			<use xlink:href="#SVGID_22_"  overflow="visible"/>
		</clipPath>
		
			<radialGradient id="SVGID_24_" cx="-457.1438" cy="448.6578" r="0.3711" gradientTransform="matrix(-292.5864 -414.2833 -355.2155 250.8491 25726.2578 -301913.8438)" gradientUnits="userSpaceOnUse">
			<stop  offset="0" style="stop-color:#FFFFFF"/>
			<stop  offset="0.1875" style="stop-color:#FBFDFE"/>
			<stop  offset="0.2672" style="stop-color:#F2F8FD"/>
			<stop  offset="0.3263" style="stop-color:#E5F0FA"/>
			<stop  offset="0.3754" style="stop-color:#D3E6F7"/>
			<stop  offset="0.4182" style="stop-color:#BBDBF3"/>
			<stop  offset="0.4566" style="stop-color:#9DCDEF"/>
			<stop  offset="0.4918" style="stop-color:#78BFEA"/>
			<stop  offset="0.5235" style="stop-color:#47B0E4"/>
			<stop  offset="0.5333" style="stop-color:#2BACE2"/>
			<stop  offset="0.541" style="stop-color:#2DA6D9"/>
			<stop  offset="0.6247" style="stop-color:#287BA4"/>
			<stop  offset="0.7075" style="stop-color:#1F5D80"/>
			<stop  offset="0.7877" style="stop-color:#164969"/>
			<stop  offset="0.8647" style="stop-color:#0F3B5A"/>
			<stop  offset="0.937" style="stop-color:#0C3352"/>
			<stop  offset="1" style="stop-color:#0B304F"/>
		</radialGradient>
		<polygon clip-path="url(#SVGID_23_)" fill="url(#SVGID_24_)" points="48.227,69.246 33.384,48.223 54.898,33.025 69.741,54.041 		
			"/>
	</g>
	<g>
		<defs>
			<path id="SVGID_25_" d="M54.428,56.191L54.428,56.191c3.107-1.619,5.174-3.406,6.399-4.688c0.434-0.398,0.708-0.966,0.708-1.604
				c0-0.67-0.311-1.283-0.793-1.676l-0.822-0.859C57.768,50.17,55.949,53.119,54.428,56.191"/>
		</defs>
		<clipPath id="SVGID_26_">
			<use xlink:href="#SVGID_25_"  overflow="visible"/>
		</clipPath>
		
			<radialGradient id="SVGID_27_" cx="-457.1254" cy="448.6965" r="0.3736" gradientTransform="matrix(-319.4066 -452.259 -387.7767 273.8434 28099.3105 -329593.0938)" gradientUnits="userSpaceOnUse">
			<stop  offset="0" style="stop-color:#FFFFFF"/>
			<stop  offset="0.1875" style="stop-color:#FBFDFE"/>
			<stop  offset="0.2672" style="stop-color:#F2F8FD"/>
			<stop  offset="0.3263" style="stop-color:#E5F0FA"/>
			<stop  offset="0.3754" style="stop-color:#D3E6F7"/>
			<stop  offset="0.4182" style="stop-color:#BBDBF3"/>
			<stop  offset="0.4566" style="stop-color:#9DCDEF"/>
			<stop  offset="0.4918" style="stop-color:#78BFEA"/>
			<stop  offset="0.5235" style="stop-color:#47B0E4"/>
			<stop  offset="0.5333" style="stop-color:#2BACE2"/>
			<stop  offset="0.541" style="stop-color:#2DA6D9"/>
			<stop  offset="0.6247" style="stop-color:#287BA4"/>
			<stop  offset="0.7075" style="stop-color:#1F5D80"/>
			<stop  offset="0.7877" style="stop-color:#164969"/>
			<stop  offset="0.8647" style="stop-color:#0F3B5A"/>
			<stop  offset="0.937" style="stop-color:#0C3352"/>
			<stop  offset="1" style="stop-color:#0B304F"/>
		</radialGradient>
		<polygon clip-path="url(#SVGID_26_)" fill="url(#SVGID_27_)" points="56.793,59.542 50.269,50.305 59.17,44.02 65.695,53.258 		
			"/>
	</g>
	<g>
		<path fill="#00274D" d="M92.107,32.598v13.061c-2.718,1.438-6.611,2.818-11.683,2.818c-11.069,0-15.885-8.043-15.885-17.418
			c0-9.84,4.914-17.936,16.498-17.936c3.382,0,7.945,0.562,10.61,1.793l-1.335,4.969c-1.998-0.819-4.917-1.538-8.352-1.538
			c-7.688,0-11.221,4.509-11.221,12.711c0,7.583,3.022,12.244,11.017,12.244c1.178,0,2.868-0.208,4.253-0.564V32.598H92.107z"/>
		<path fill="#00274D" d="M112.655,42.434V22.344h5.944v25.617h-5.944v-1.839h-0.256c-2.513,1.594-4.973,2.354-7.891,2.354
			c-4.763,0-8.095-2.561-8.095-7.992v-18.14h5.94V38.23c0,3.074,0.308,5.483,4.302,5.483
			C109.217,43.714,111.067,43.051,112.655,42.434"/>
		<path fill="#00274D" d="M127.719,12.252c1.896,0,3.487,1.588,3.487,3.535c0,1.896-1.591,3.486-3.487,3.486
			c-1.946,0-3.537-1.59-3.537-3.486C124.182,13.84,125.773,12.252,127.719,12.252 M130.689,47.961h-5.992V22.344h5.992V47.961z"/>
		<polygon fill="#00274D" points="143.298,47.961 137.3,47.961 137.3,12.099 143.298,11.585 		"/>
		<path fill="#00274D" d="M164.665,23.268v-11.17l5.942-0.514v36.377l-5.942-0.001v-1.789h-0.259
			c-2.199,1.743-4.045,2.305-6.664,2.305c-7.42,0-10.344-6.145-10.344-12.807c0-7.688,3.125-13.835,11.271-13.835
			c2.104,0,4.1,0.51,5.84,1.538C164.565,23.317,164.612,23.317,164.665,23.268 M159.029,43.714c2.615,0,3.893-0.517,5.636-1.026
			v-15.32c-1.64-0.511-3.075-0.77-5.13-0.77c-4.711,0-6.096,3.178-6.096,8.814C153.439,40.021,154.363,43.714,159.029,43.714"/>
		<path fill="#55789A" d="M177.119,41.305c3.068,1.279,7.07,1.996,9.891,1.996c3.789,0,5.891-1.789,5.891-4.557
			c0-3.072-2.516-4.459-6.305-5.689c-5.893-1.893-10.652-3.793-10.652-10.351c0-6.351,5.633-9.582,12.299-9.582
			c3.737,0,7.271,0.869,9.627,1.793l-1.331,5.228c-2.82-1.231-6.249-1.796-8.296-1.796c-3.439,0-5.951,1.335-5.951,4.154
			c0,3.022,3.178,4.249,6.869,5.379c6.197,1.895,10.04,4.921,10.04,10.351c0,6.357-5.021,10.244-11.836,10.244
			c-4.562,0-9.016-0.969-11.632-2.302L177.119,41.305z"/>
		<path fill="#55789A" d="M219.187,42.434V22.344h5.94v25.618h-5.94v-1.84h-0.255c-2.515,1.594-4.971,2.354-7.897,2.354
			c-4.763,0-8.092-2.561-8.092-7.992v-18.14h5.943V38.23c0,3.074,0.31,5.483,4.305,5.483
			C215.754,43.714,217.6,43.051,219.187,42.434"/>
		<path fill="#55789A" d="M236.1,47.045v11.166h-5.951V22.344h5.951v1.796h0.256c2.149-1.796,4.252-2.306,7.015-2.306
			c7.433,0,9.999,6.147,9.999,12.811c0,7.687-3.129,13.833-11.278,13.833c-2.097,0-4.099-0.517-5.839-1.537
			C236.201,46.99,236.146,46.99,236.1,47.045 M241.734,26.598c-2.617,0-3.896,0.516-5.635,1.024v15.426
			c1.639,0.515,3.07,0.766,5.121,0.766c4.713,0,6.096-3.282,6.096-8.918C247.316,30.283,246.396,26.598,241.734,26.598"/>
		<path fill="#55789A" d="M277.299,46.686c-2.721,1.177-5.533,1.791-8.871,1.791c-7.574,0-12.555-2.769-12.555-13.117
			c0-8.864,4.307-13.525,11.883-13.525c7.534,0,11.076,4.149,11.076,11.22c0,0.412-0.05,2.256-0.312,3.381h-16.714
			c0.217,6.408,3.195,7.278,7.299,7.278c2.185,0,5.312-0.567,7.206-1.28L277.299,46.686z M261.918,32.336h10.977
			c0.049-3.789-1.899-5.738-5.234-5.738C264.587,26.598,262.49,28.187,261.918,32.336"/>
		<path fill="#55789A" d="M297.539,26.959c-4.306-0.153-6.911,0.511-8.46,1.126v19.876h-5.988V22.344h5.988v1.9h0.209
			c2.154-1.438,4.808-2.667,8.251-2.311V26.959z"/>
	</g>
	<g>
		<path fill="#00274D" d="M70.342,58.538v5.673h0.04c0.237-0.619,0.659-1.117,1.265-1.492c0.606-0.376,1.271-0.564,1.996-0.564
			c0.711,0,1.308,0.094,1.788,0.277c0.481,0.185,0.866,0.445,1.156,0.781c0.29,0.336,0.494,0.748,0.613,1.234
			c0.119,0.488,0.178,1.035,0.178,1.641v6.562h-1.245v-6.365c0-0.434-0.039-0.84-0.119-1.215c-0.079-0.375-0.217-0.701-0.415-0.979
			c-0.198-0.276-0.464-0.494-0.8-0.652c-0.336-0.158-0.754-0.236-1.255-0.236c-0.501,0-0.946,0.088-1.334,0.266
			c-0.389,0.179-0.718,0.422-0.988,0.732c-0.27,0.309-0.481,0.678-0.632,1.106c-0.151,0.429-0.234,0.893-0.247,1.394v5.949h-1.245
			V58.538H70.342z"/>
		<path fill="#00274D" d="M80.649,69.28c0.125,0.481,0.326,0.913,0.603,1.294c0.277,0.383,0.626,0.699,1.048,0.949
			c0.421,0.25,0.929,0.375,1.521,0.375c0.909,0,1.621-0.236,2.135-0.711c0.514-0.475,0.87-1.107,1.067-1.897h1.245
			c-0.264,1.159-0.748,2.056-1.453,2.688c-0.705,0.632-1.703,0.948-2.995,0.948c-0.804,0-1.499-0.142-2.085-0.425
			c-0.586-0.283-1.064-0.672-1.433-1.166c-0.369-0.494-0.642-1.068-0.82-1.72c-0.178-0.652-0.267-1.341-0.267-2.065
			c0-0.672,0.089-1.33,0.267-1.977c0.178-0.646,0.451-1.223,0.82-1.73c0.369-0.507,0.847-0.915,1.433-1.226
			c0.586-0.309,1.281-0.465,2.085-0.465c0.817,0,1.515,0.166,2.095,0.494c0.58,0.33,1.051,0.762,1.413,1.295
			c0.362,0.534,0.622,1.146,0.781,1.838c0.158,0.692,0.224,1.394,0.198,2.105h-7.847C80.461,68.335,80.524,68.799,80.649,69.28z
			 M86.816,65.476c-0.152-0.435-0.366-0.82-0.643-1.156c-0.276-0.336-0.613-0.606-1.008-0.81c-0.396-0.204-0.843-0.306-1.344-0.306
			c-0.514,0-0.968,0.102-1.363,0.306c-0.396,0.204-0.731,0.475-1.008,0.81c-0.277,0.336-0.498,0.725-0.662,1.166
			c-0.165,0.441-0.273,0.893-0.326,1.354h6.602C87.05,66.365,86.967,65.91,86.816,65.476z"/>
		<path fill="#00274D" d="M91.253,58.538V72.65h-1.245V58.538H91.253z"/>
		<path fill="#00274D" d="M94.79,62.451v1.938h0.04c0.29-0.712,0.761-1.262,1.413-1.65c0.652-0.389,1.394-0.584,2.224-0.584
			c0.777,0,1.453,0.146,2.026,0.436c0.573,0.29,1.051,0.682,1.433,1.176c0.382,0.494,0.665,1.067,0.85,1.72
			c0.185,0.652,0.277,1.341,0.277,2.065c0,0.725-0.092,1.413-0.277,2.065c-0.185,0.651-0.468,1.226-0.85,1.72
			c-0.382,0.494-0.86,0.883-1.433,1.166c-0.573,0.283-1.249,0.425-2.026,0.425c-0.369,0-0.738-0.046-1.107-0.139
			c-0.369-0.093-0.712-0.229-1.027-0.415c-0.316-0.184-0.597-0.415-0.84-0.691c-0.244-0.277-0.432-0.6-0.563-0.969h-0.04v5.692
			h-1.245V62.451H94.79z M101.619,65.979c-0.125-0.521-0.323-0.985-0.593-1.394c-0.27-0.408-0.616-0.741-1.038-0.998
			c-0.422-0.257-0.929-0.385-1.522-0.385c-0.685,0-1.258,0.118-1.719,0.356c-0.462,0.236-0.83,0.553-1.107,0.948
			c-0.277,0.396-0.471,0.856-0.583,1.384c-0.112,0.527-0.168,1.08-0.168,1.66c0,0.527,0.062,1.051,0.188,1.571
			c0.125,0.521,0.329,0.985,0.613,1.394c0.283,0.408,0.652,0.74,1.107,0.998c0.455,0.257,1.011,0.385,1.67,0.385
			c0.593,0,1.1-0.128,1.522-0.385c0.421-0.258,0.768-0.59,1.038-0.998c0.27-0.408,0.467-0.873,0.593-1.394
			c0.125-0.521,0.188-1.044,0.188-1.571C101.807,67.023,101.744,66.5,101.619,65.979z"/>
		<path fill="#00274D" d="M106.254,58.538v1.996h-1.245v-1.996H106.254z M106.254,62.451V72.65h-1.245V62.451H106.254z"/>
		<path fill="#00274D" d="M109.871,62.451v1.76h0.04c0.237-0.619,0.659-1.117,1.265-1.492c0.606-0.376,1.271-0.564,1.996-0.564
			c0.711,0,1.308,0.094,1.789,0.277c0.481,0.185,0.866,0.445,1.156,0.781c0.29,0.336,0.494,0.748,0.613,1.234
			c0.119,0.488,0.178,1.035,0.178,1.641v6.562h-1.245v-6.365c0-0.434-0.039-0.84-0.119-1.215c-0.079-0.375-0.217-0.701-0.415-0.979
			c-0.198-0.276-0.464-0.494-0.8-0.652c-0.336-0.158-0.754-0.236-1.255-0.236c-0.501,0-0.946,0.088-1.334,0.266
			c-0.389,0.179-0.718,0.422-0.988,0.732c-0.27,0.309-0.481,0.678-0.632,1.106c-0.151,0.429-0.234,0.893-0.247,1.394v5.949h-1.245
			V62.451H109.871z"/>
		<path fill="#00274D" d="M127.629,73.855c-0.165,0.605-0.425,1.119-0.781,1.541c-0.356,0.422-0.82,0.745-1.394,0.969
			c-0.573,0.225-1.274,0.336-2.105,0.336c-0.514,0-1.015-0.059-1.502-0.178c-0.487-0.118-0.926-0.303-1.314-0.553
			c-0.389-0.251-0.711-0.57-0.968-0.959c-0.257-0.389-0.405-0.854-0.445-1.394h1.245c0.066,0.382,0.194,0.702,0.386,0.959
			c0.191,0.257,0.421,0.464,0.691,0.622c0.27,0.158,0.57,0.273,0.899,0.346c0.329,0.072,0.665,0.109,1.008,0.109
			c1.16,0,1.997-0.33,2.51-0.988c0.514-0.659,0.771-1.607,0.771-2.846v-1.384h-0.04c-0.29,0.632-0.715,1.14-1.275,1.521
			c-0.56,0.382-1.215,0.573-1.967,0.573c-0.817,0-1.515-0.135-2.095-0.405c-0.58-0.27-1.058-0.642-1.433-1.116
			c-0.375-0.475-0.649-1.031-0.82-1.67c-0.171-0.64-0.257-1.321-0.257-2.046c0-0.698,0.102-1.36,0.307-1.986
			c0.204-0.626,0.501-1.173,0.889-1.641c0.389-0.468,0.87-0.837,1.443-1.106c0.573-0.27,1.229-0.406,1.966-0.406
			c0.382,0,0.741,0.054,1.077,0.158c0.336,0.106,0.642,0.254,0.919,0.445c0.276,0.191,0.523,0.412,0.741,0.662
			c0.217,0.25,0.385,0.514,0.504,0.791h0.04v-1.76h1.245v9.369C127.876,72.57,127.793,73.25,127.629,73.855z M124.773,71.138
			c0.408-0.229,0.751-0.533,1.028-0.909c0.276-0.375,0.484-0.807,0.622-1.295c0.138-0.486,0.208-0.988,0.208-1.502
			c0-0.5-0.06-1-0.178-1.502c-0.118-0.5-0.31-0.955-0.573-1.363c-0.264-0.408-0.603-0.738-1.018-0.988
			c-0.415-0.25-0.919-0.375-1.512-0.375c-0.593,0-1.1,0.121-1.521,0.365c-0.422,0.244-0.771,0.562-1.048,0.959
			c-0.276,0.395-0.478,0.846-0.603,1.354c-0.126,0.508-0.188,1.024-0.188,1.551c0,0.514,0.066,1.016,0.198,1.502
			c0.132,0.488,0.336,0.92,0.613,1.295c0.277,0.376,0.626,0.68,1.047,0.909c0.421,0.231,0.922,0.347,1.502,0.347
			C123.89,71.484,124.364,71.369,124.773,71.138z"/>
		<path fill="#00274D" d="M135.92,62.451l3.359,8.697l3.143-8.697h1.246l-4.428,11.74c-0.184,0.436-0.355,0.794-0.514,1.077
			s-0.333,0.507-0.523,0.672c-0.191,0.165-0.415,0.283-0.672,0.356c-0.257,0.072-0.583,0.108-0.979,0.108
			c-0.25-0.013-0.445-0.023-0.583-0.03c-0.138-0.006-0.26-0.029-0.366-0.068v-1.048c0.145,0.026,0.287,0.05,0.425,0.069
			c0.138,0.02,0.28,0.029,0.425,0.029c0.277,0,0.504-0.039,0.682-0.118c0.178-0.079,0.332-0.189,0.465-0.326
			c0.131-0.139,0.244-0.307,0.336-0.505c0.091-0.197,0.191-0.414,0.296-0.651l0.435-1.146l-4.071-10.159H135.92z"/>
		<path fill="#00274D" d="M151.268,62.59c0.599,0.29,1.102,0.679,1.512,1.166c0.408,0.488,0.718,1.058,0.929,1.709
			c0.21,0.652,0.315,1.348,0.315,2.086c0,0.738-0.105,1.433-0.315,2.085c-0.211,0.652-0.521,1.222-0.929,1.71
			c-0.409,0.487-0.913,0.873-1.512,1.156c-0.601,0.283-1.289,0.425-2.066,0.425c-0.777,0-1.466-0.142-2.064-0.425
			c-0.6-0.283-1.104-0.669-1.513-1.156c-0.408-0.488-0.718-1.058-0.929-1.71c-0.211-0.652-0.316-1.347-0.316-2.085
			c0-0.738,0.105-1.434,0.316-2.086c0.211-0.651,0.52-1.221,0.929-1.709c0.408-0.487,0.913-0.876,1.513-1.166
			c0.599-0.289,1.287-0.436,2.064-0.436C149.978,62.154,150.667,62.301,151.268,62.59z M147.641,63.578
			c-0.449,0.25-0.82,0.58-1.117,0.988c-0.297,0.408-0.52,0.873-0.672,1.393c-0.152,0.521-0.228,1.052-0.228,1.592
			c0,0.541,0.075,1.07,0.228,1.591c0.151,0.521,0.375,0.985,0.672,1.394c0.297,0.408,0.668,0.738,1.117,0.988
			c0.447,0.25,0.968,0.375,1.561,0.375c0.594,0,1.113-0.125,1.562-0.375s0.82-0.58,1.116-0.988c0.297-0.408,0.521-0.873,0.673-1.394
			c0.151-0.521,0.228-1.05,0.228-1.591c0-0.54-0.076-1.07-0.228-1.592c-0.151-0.52-0.376-0.984-0.673-1.393
			c-0.296-0.408-0.668-0.738-1.116-0.988s-0.968-0.375-1.562-0.375C148.608,63.203,148.088,63.328,147.641,63.578z"/>
		<path fill="#00274D" d="M162.997,72.65v-1.838h-0.04c-0.329,0.685-0.807,1.209-1.433,1.57c-0.626,0.362-1.321,0.544-2.085,0.544
			c-0.646,0-1.195-0.089-1.65-0.267c-0.455-0.178-0.824-0.432-1.107-0.762c-0.283-0.328-0.49-0.73-0.622-1.205
			c-0.132-0.475-0.198-1.015-0.198-1.621v-6.621h1.246v6.641c0.025,0.923,0.24,1.621,0.643,2.096
			c0.401,0.475,1.096,0.711,2.084,0.711c0.541,0,1.002-0.115,1.385-0.346c0.381-0.23,0.697-0.537,0.947-0.919
			c0.251-0.382,0.436-0.82,0.555-1.313c0.118-0.494,0.178-0.999,0.178-1.513v-5.356h1.244V72.65H162.997z"/>
		<path fill="#00274D" d="M180.359,73.855c-0.164,0.605-0.424,1.119-0.78,1.541s-0.82,0.745-1.394,0.969
			c-0.573,0.225-1.274,0.336-2.105,0.336c-0.514,0-1.014-0.059-1.502-0.178c-0.486-0.118-0.926-0.303-1.314-0.553
			c-0.389-0.251-0.711-0.57-0.968-0.959c-0.257-0.389-0.405-0.854-0.444-1.394h1.244c0.066,0.382,0.195,0.702,0.387,0.959
			c0.191,0.257,0.421,0.464,0.691,0.622c0.27,0.158,0.569,0.273,0.898,0.346c0.33,0.072,0.666,0.109,1.008,0.109
			c1.16,0,1.997-0.33,2.511-0.988c0.515-0.659,0.771-1.607,0.771-2.846v-1.384h-0.039c-0.29,0.632-0.715,1.14-1.275,1.521
			c-0.56,0.382-1.215,0.573-1.967,0.573c-0.816,0-1.515-0.135-2.094-0.405c-0.58-0.27-1.059-0.642-1.434-1.116
			c-0.375-0.475-0.648-1.031-0.82-1.67c-0.172-0.64-0.257-1.321-0.257-2.046c0-0.698,0.103-1.36,0.307-1.986s0.501-1.173,0.89-1.641
			c0.389-0.468,0.869-0.837,1.442-1.106c0.573-0.27,1.229-0.406,1.966-0.406c0.383,0,0.742,0.054,1.078,0.158
			c0.336,0.106,0.643,0.254,0.919,0.445c0.276,0.191,0.523,0.412,0.741,0.662c0.217,0.25,0.385,0.514,0.504,0.791h0.039v-1.76h1.246
			v9.369C180.607,72.57,180.524,73.25,180.359,73.855z M177.504,71.138c0.408-0.229,0.751-0.533,1.027-0.909
			c0.277-0.375,0.484-0.807,0.623-1.295c0.139-0.486,0.207-0.988,0.207-1.502c0-0.5-0.059-1-0.178-1.502
			c-0.118-0.5-0.31-0.955-0.572-1.363c-0.265-0.408-0.604-0.738-1.019-0.988c-0.415-0.25-0.919-0.375-1.513-0.375
			c-0.592,0-1.1,0.121-1.521,0.365c-0.422,0.244-0.771,0.562-1.047,0.959c-0.277,0.395-0.479,0.846-0.604,1.354
			c-0.125,0.508-0.188,1.024-0.188,1.551c0,0.514,0.066,1.016,0.197,1.502c0.133,0.488,0.336,0.92,0.613,1.295
			c0.277,0.376,0.625,0.68,1.047,0.909c0.422,0.231,0.923,0.347,1.502,0.347C176.621,71.484,177.096,71.369,177.504,71.138z"/>
		<path fill="#00274D" d="M183.897,69.28c0.125,0.481,0.326,0.913,0.603,1.294c0.277,0.383,0.626,0.699,1.048,0.949
			c0.421,0.25,0.929,0.375,1.521,0.375c0.909,0,1.621-0.236,2.135-0.711s0.87-1.107,1.067-1.897h1.245
			c-0.264,1.159-0.748,2.056-1.452,2.688c-0.705,0.632-1.703,0.948-2.995,0.948c-0.804,0-1.499-0.142-2.085-0.425
			c-0.586-0.283-1.064-0.672-1.434-1.166c-0.368-0.494-0.642-1.068-0.819-1.72c-0.179-0.652-0.267-1.341-0.267-2.065
			c0-0.672,0.088-1.33,0.267-1.977c0.178-0.646,0.451-1.223,0.819-1.73c0.369-0.507,0.848-0.915,1.434-1.226
			c0.586-0.309,1.281-0.465,2.085-0.465c0.817,0,1.515,0.166,2.095,0.494c0.58,0.33,1.051,0.762,1.414,1.295
			c0.361,0.534,0.622,1.146,0.78,1.838c0.158,0.692,0.224,1.394,0.198,2.105h-7.848C183.709,68.335,183.771,68.799,183.897,69.28z
			 M190.064,65.476c-0.152-0.435-0.366-0.82-0.643-1.156c-0.277-0.336-0.613-0.606-1.008-0.81c-0.396-0.204-0.844-0.306-1.345-0.306
			c-0.514,0-0.968,0.102-1.363,0.306c-0.396,0.204-0.731,0.475-1.009,0.81c-0.276,0.336-0.497,0.725-0.662,1.166
			c-0.164,0.441-0.273,0.893-0.326,1.354h6.601C190.298,66.365,190.215,65.91,190.064,65.476z"/>
		<path fill="#00274D" d="M197.288,62.451v1.048h-2.075v6.878c0,0.408,0.056,0.729,0.168,0.959c0.111,0.23,0.392,0.359,0.84,0.385
			c0.355,0,0.711-0.02,1.067-0.059v1.047c-0.185,0-0.369,0.007-0.554,0.02c-0.185,0.014-0.369,0.02-0.553,0.02
			c-0.83,0-1.41-0.16-1.74-0.483c-0.329-0.323-0.487-0.919-0.475-1.789v-6.977h-1.778v-1.048h1.778v-3.062h1.246v3.062H197.288z"/>
		<path fill="#00274D" d="M208.633,62.451v1.048h-2.076v6.878c0,0.408,0.057,0.729,0.168,0.959c0.112,0.23,0.393,0.359,0.841,0.385
			c0.355,0,0.712-0.02,1.067-0.059v1.047c-0.186,0-0.369,0.007-0.554,0.02c-0.185,0.014-0.369,0.02-0.554,0.02
			c-0.83,0-1.41-0.16-1.738-0.483c-0.33-0.323-0.488-0.919-0.475-1.789v-6.977h-1.779v-1.048h1.779v-3.062h1.244v3.062H208.633z"/>
		<path fill="#00274D" d="M211.656,58.538v5.673h0.039c0.238-0.619,0.659-1.117,1.266-1.492c0.605-0.376,1.271-0.564,1.996-0.564
			c0.711,0,1.308,0.094,1.789,0.277c0.48,0.185,0.865,0.445,1.156,0.781c0.289,0.336,0.494,0.748,0.612,1.234
			c0.118,0.488,0.178,1.035,0.178,1.641v6.562h-1.245v-6.365c0-0.434-0.039-0.84-0.119-1.215c-0.078-0.375-0.217-0.701-0.414-0.979
			c-0.198-0.276-0.465-0.494-0.801-0.652c-0.336-0.158-0.754-0.236-1.255-0.236c-0.501,0-0.946,0.088-1.335,0.266
			c-0.389,0.179-0.718,0.422-0.988,0.732c-0.27,0.309-0.48,0.678-0.632,1.106c-0.151,0.429-0.233,0.893-0.247,1.394v5.949h-1.245
			V58.538H211.656z"/>
		<path fill="#00274D" d="M221.963,69.28c0.125,0.481,0.326,0.913,0.604,1.294c0.276,0.383,0.625,0.699,1.047,0.949
			c0.422,0.25,0.93,0.375,1.521,0.375c0.91,0,1.621-0.236,2.135-0.711c0.514-0.475,0.87-1.107,1.068-1.897h1.244
			c-0.264,1.159-0.748,2.056-1.452,2.688c-0.705,0.632-1.703,0.948-2.995,0.948c-0.803,0-1.498-0.142-2.084-0.425
			c-0.587-0.283-1.064-0.672-1.434-1.166c-0.369-0.494-0.643-1.068-0.82-1.72c-0.178-0.652-0.267-1.341-0.267-2.065
			c0-0.672,0.089-1.33,0.267-1.977c0.178-0.646,0.451-1.223,0.82-1.73c0.369-0.507,0.847-0.915,1.434-1.226
			c0.586-0.309,1.281-0.465,2.084-0.465c0.817,0,1.516,0.166,2.096,0.494c0.58,0.33,1.051,0.762,1.413,1.295
			c0.362,0.534,0.622,1.146,0.78,1.838c0.158,0.692,0.225,1.394,0.198,2.105h-7.847C221.775,68.335,221.838,68.799,221.963,69.28z
			 M228.13,65.476c-0.151-0.435-0.366-0.82-0.643-1.156c-0.276-0.336-0.612-0.606-1.008-0.81c-0.395-0.204-0.843-0.306-1.345-0.306
			c-0.514,0-0.968,0.102-1.363,0.306c-0.394,0.204-0.73,0.475-1.008,0.81c-0.277,0.336-0.498,0.725-0.662,1.166
			c-0.165,0.441-0.273,0.893-0.326,1.354h6.602C228.363,66.365,228.281,65.91,228.13,65.476z"/>
		<path fill="#00274D" d="M232.448,62.451v2.392h0.04c0.316-0.83,0.807-1.469,1.473-1.917c0.664-0.447,1.459-0.652,2.381-0.613
			v1.246c-0.566-0.026-1.08,0.049-1.541,0.227c-0.462,0.178-0.86,0.432-1.196,0.762c-0.336,0.329-0.597,0.721-0.78,1.176
			c-0.186,0.455-0.277,0.952-0.277,1.492v5.436h-1.244V62.451H232.448z"/>
		<path fill="#00274D" d="M238.447,69.28c0.125,0.481,0.326,0.913,0.601,1.294c0.277,0.383,0.627,0.699,1.049,0.949
			c0.421,0.25,0.928,0.375,1.521,0.375c0.908,0,1.621-0.236,2.135-0.711s0.869-1.107,1.066-1.897h1.246
			c-0.264,1.159-0.748,2.056-1.453,2.688c-0.705,0.632-1.703,0.948-2.994,0.948c-0.805,0-1.499-0.142-2.086-0.425
			c-0.586-0.283-1.063-0.672-1.433-1.166c-0.368-0.494-0.642-1.068-0.819-1.72c-0.179-0.652-0.268-1.341-0.268-2.065
			c0-0.672,0.089-1.33,0.268-1.977c0.178-0.646,0.451-1.223,0.819-1.73c0.369-0.507,0.847-0.915,1.433-1.226
			c0.587-0.309,1.281-0.465,2.086-0.465c0.816,0,1.515,0.166,2.095,0.494c0.579,0.33,1.051,0.762,1.413,1.295
			c0.362,0.534,0.623,1.146,0.781,1.838c0.158,0.692,0.224,1.394,0.197,2.105h-7.847C238.259,68.335,238.321,68.799,238.447,69.28z
			 M244.613,65.476c-0.152-0.435-0.365-0.82-0.643-1.156c-0.276-0.336-0.613-0.606-1.008-0.81c-0.396-0.204-0.844-0.306-1.344-0.306
			c-0.514,0-0.969,0.102-1.363,0.306c-0.396,0.204-0.732,0.475-1.009,0.81c-0.276,0.336-0.497,0.725-0.662,1.166
			c-0.165,0.441-0.274,0.893-0.326,1.354h6.602C244.848,66.365,244.765,65.91,244.613,65.476z"/>
	</g>
</g>
</svg>
