<?xml version="1.0" encoding="utf-8"?>
<!-- Generator: Adobe Illustrator 18.1.1, SVG Export Plug-In . SVG Version: 6.00 Build 0)  -->
<!DOCTYPE svg PUBLIC "-//W3C//DTD SVG 1.1//EN" "http://www.w3.org/Graphics/SVG/1.1/DTD/svg11.dtd">
<svg version="1.1" id="Layer_1" xmlns="http://www.w3.org/2000/svg" xmlns:xlink="http://www.w3.org/1999/xlink" x="0px" y="0px"
	 viewBox="0 0 455.2 193.9" style="enable-background:new 0 0 455.2 193.9;" xml:space="preserve">
<polygon style="fill:#D82232;" points="61.5,72.1 87.2,47.1 87.2,32.4 67.1,32.4 29.7,71.3 29.7,0 0,0 0,140.5 29.7,140.5 
	29.7,103.3 41.2,92.2 70.9,140.5 87.2,140.5 87.2,110.8 "/>
<g>
	<path style="fill:#D82232;" d="M203.5,127.5c-4.7-5-8.4-11-11-18c-2.6-7-3.9-14.6-3.9-23c0-8.1,1.3-15.6,4-22.6
		c2.5-6.7,6.1-12.4,10.6-17.4c-0.9-1.8-1.9-3.4-3-4.9c-2.9-3.8-6.9-6.8-12-9c-5.1-2.2-11.6-3.2-19.5-3.2c-6.3,0-12.4,1.4-18.4,4.3
		c-6,2.9-10.9,7.4-14.6,13.7H135v-15h-18.2v108.1h19.6V83.8c0-11,1.8-18.9,5.4-23.7c3.6-4.8,9.5-7.2,17.6-7.2
		c7.1,0,12.1,2.2,14.8,6.6c2.8,4.4,4.2,11,4.2,20v61h29.7v-8.7C206.5,130.5,205,129,203.5,127.5"/>
	<path style="fill:#D82232;" d="M328.2,118.3c-4.6-0.1-7.8-0.9-9.4-2.5c-1.7-1.7-2.5-5-2.5-10V52.3h11.9V32.4h-11.9V0h-29.7v32.4
		h-18v2.8c6.5,3.5,11.8,8.1,16,13.9c4.4,6,7.6,12.8,9.5,20.5c2,7.7,2.6,15.7,2.1,24h-9.7V107h7.8c-1.9,6-4.3,11.2-7.2,15.6
		c0.4,2.5,1.2,4.7,2.2,6.6c1.8,3.3,4.3,5.9,7.4,7.7c3.1,1.8,6.8,3,10.9,3.7c4.1,0.6,8.5,0.9,13.1,0.9c2.9,0,5.9-0.1,9-0.2
		c3.1-0.1,5.8-0.4,8.4-0.8h-9.9V118.3z"/>
	<path style="fill:#D82232;" d="M426.6,99.1c-1,6.7-3.4,12-7.2,16c-3.8,4-9.3,6-16.4,6c-4.6,0-8.5-1-11.7-3.1
		c-3.2-2.1-5.7-4.8-7.6-8c-1.9-3.3-3.2-6.9-4.1-11c-0.8-4-1.3-8-1.3-11.9c0-4,0.4-8.1,1.3-12.2c0.8-4.1,2.3-7.9,4.3-11.3
		c2-3.4,4.6-6.2,7.8-8.4c3.2-2.2,7.2-3.2,11.9-3.2c12.7,0,20,6.2,22,18.6h29.1c-0.4-7-2.1-13-5-18.1c-2.9-5.1-6.7-9.3-11.4-12.8
		c-4.7-3.4-10-6-15.9-7.6c-5.9-1.7-12.1-2.5-18.5-2.5c-8.8,0-16.6,1.5-23.4,4.4c-6.8,2.9-12.6,7-17.3,12.2c-1.9,2.1-3.6,4.3-5.1,6.7
		v67.8c1.7,2.6,3.6,4.9,5.7,7.1c4.7,4.9,10.5,8.7,17.2,11.4c6.8,2.7,14.2,4.1,22.3,4.1c14.3,0,26.1-3.8,35.3-11.3
		c9.2-7.5,14.8-18.5,16.7-32.8H426.6z"/>
	<polygon style="fill:#1CB1E2;" points="106.8,140.5 106.8,140.5 106.8,140.4 	"/>
	<rect x="87.2" y="0" style="fill:#139FDA;" width="29.7" height="24.5"/>
	<polygon style="fill:#139FDA;" points="87.2,110.8 106.8,140.4 106.8,32.4 102.2,32.4 87.2,47.1 	"/>
	<path style="fill:#139FDA;" d="M286.7,107h-18.4c-1,3.3-3.6,6.5-7.9,9.5c-4.3,3-9.5,4.5-15.5,4.5c-8.4,0-14.8-2.2-19.2-6.5
		c-4.5-4.3-6.9-11.3-7.3-20.9h68.3V52.3h-18v-17c-0.3-0.1-0.5-0.3-0.8-0.4c-6.8-3.6-14.8-5.3-24-5.3c-8.2,0-15.7,1.5-22.5,4.4
		c-6.8,2.9-12.6,6.9-17.5,12c-0.2,0.2-0.4,0.5-0.7,0.7c1.4,2.7,2.4,5.8,3.1,9.1c1.2,5.5,1.8,11.6,1.8,18.3v57.8
		c3.7,3,7.9,5.4,12.7,7.3c6.8,2.7,14.5,4.1,23,4.1c12.3,0,22.7-2.8,31.4-8.4c4.6-3,8.6-7.1,12-12.2c-0.4-2-0.5-4.2-0.5-6.6V107z
		 M219.7,67.7c0.8-2.6,2.1-5.2,4-7.5c1.9-2.4,4.4-4.4,7.5-6c3.1-1.6,7.1-2.4,11.8-2.4c7.2,0,12.6,2,16.2,5.9c3.5,3.9,6,9.6,7.4,17.1
		h-48.3C218.5,72.7,219,70.4,219.7,67.7"/>
	<path style="fill:#139FDA;" d="M348.6,88c0-8.4,1.2-16.1,3.7-23.3c1.5-4.3,3.4-8.3,5.7-11.9V32.4h-19.8v19.9h-9.9v66
		c0.2,0,0.4,0,0.7,0c1.7,0,3.3-0.1,4.8-0.2c1.5-0.1,3-0.3,4.4-0.6v23h19.8v-19.9c-2.1-3.2-3.9-6.6-5.4-10.3
		C349.9,103.5,348.6,96.1,348.6,88"/>
	<rect x="328.2" y="0" style="fill:#139FDA;" width="29.7" height="24.5"/>
	<path style="fill:#313C67;" d="M106.8,140.4L106.8,140.4l-19.7,0v-29.6L106.8,140.4z M102.2,32.4H87.2v14.7L102.2,32.4z
		 M106.8,32.4v108l0,0h10V32.4H106.8z"/>
	<path style="fill:#313C67;" d="M208.2,74v57.8c-1.7-1.3-3.2-2.7-4.7-4.3c-4.7-5-8.4-11-11-18c-2.6-7-3.9-14.6-3.9-23
		c0-8.1,1.3-15.6,4-22.6c2.5-6.6,6.1-12.4,10.6-17.4c1.4,2.7,2.4,5.8,3.1,9.1C207.6,61.2,208.2,67.3,208.2,74 M286.7,107v9
		c0,2.4,0.2,4.6,0.5,6.6c2.9-4.4,5.3-9.6,7.2-15.6H286.7z M286.7,52.3v41.4h9.7c0.6-8.4-0.1-16.4-2.1-24c-2-7.7-5.1-14.5-9.5-20.5
		c-4.2-5.7-9.6-10.4-16-13.9v17H286.7z"/>
	<path style="fill:#313C67;" d="M328.2,32.4h9.9v19.9h-9.9V32.4z M333.7,118.1c-1.5,0.1-3.1,0.2-4.8,0.2c-0.2,0-0.5,0-0.7,0v22.2
		h9.9v-23C336.7,117.8,335.2,118,333.7,118.1 M352.2,64.7c-2.4,7.2-3.7,15-3.7,23.3c0,8.1,1.3,15.5,4,22.3c1.5,3.7,3.3,7.2,5.4,10.3
		V52.8C355.6,56.4,353.7,60.4,352.2,64.7"/>
	<path style="fill:#D82232;" d="M203.5,179.1c0.1,3.1,2.7,4.1,5.5,4.1c2.1,0,5-0.5,5-3.1c0-2.7-3.3-3.1-6.7-3.9
		c-3.3-0.8-6.7-1.9-6.7-6c0-4.2,4.1-6,7.6-6c4.5,0,8.1,1.5,8.4,6.6h-3.4c-0.2-2.7-2.5-3.6-4.8-3.6c-2,0-4.4,0.6-4.4,2.7
		c0,2.5,3.6,2.9,6.7,3.7c3.4,0.8,6.7,1.9,6.7,6c0,5-4.6,6.7-8.7,6.7c-4.6,0-8.5-1.9-8.7-7.2H203.5z"/>
	<path style="fill:#D82232;" d="M236.8,185.8h-3.2v-3.4h-0.1c-1.4,2.6-3.7,3.8-6.7,3.8c-5.4,0-7.1-3.2-7.1-7.7v-13.9h3.4V179
		c0,2.6,1.6,4.3,4.2,4.3c4.1,0,6.1-2.8,6.1-6.6v-11.9h3.4V185.8z"/>
	<path style="fill:#D82232;" d="M240.4,164.6h3.4v2.9h0.1c1.1-2.3,3.7-3.4,6.5-3.4c6.3,0,9.4,5.1,9.4,11.1c0,6-3.1,11-9.4,11
		c-2.1,0-5.1-0.8-6.6-3.3h-0.1v10.9h-3.4V164.6z M249.9,167.2c-4.5,0-6.3,4-6.3,8c0,4.2,1.8,8,6.5,8c4.6,0,6.1-4,6.1-8.2
		C256.3,171.1,254.3,167.2,249.9,167.2"/>
	<path style="fill:#D82232;" d="M280.6,179.1c-0.9,4.7-4.2,7.2-8.8,7.2c-6.5,0-9.6-4.7-9.8-11.1c0-6.3,4-11,9.6-11
		c7.3,0,9.5,7,9.3,12.1h-15.3c-0.1,3.7,1.9,6.9,6.4,6.9c2.8,0,4.7-1.4,5.3-4.1H280.6z M277.3,173.2c-0.2-3.3-2.6-6-5.9-6
		c-3.5,0-5.6,2.7-5.9,6H277.3z"/>
	<path style="fill:#D82232;" d="M283.5,164.6h3.2v4.5h0.1c1.6-3.4,3.9-5.1,7.5-4.9v3.7c-5.4,0-7.4,3.2-7.4,8.5v9.4h-3.4V164.6z"/>
	<path style="fill:#D82232;" d="M313.9,185.7c-0.6,0.4-1.3,0.6-2.4,0.6c-1.7,0-2.9-1-2.9-3.3c-1.9,2.2-4.4,3.3-7.2,3.3
		c-3.7,0-6.8-1.7-6.8-5.9c0-4.8,3.4-5.8,6.9-6.5c3.7-0.7,6.9-0.5,6.9-3.1c0-3-2.4-3.5-4.6-3.5c-2.9,0-5,0.9-5.1,4h-3.4
		c0.2-5.2,4.1-7.1,8.7-7.1c3.7,0,7.7,0.9,7.7,5.8v10.9c0,1.6,0,2.4,1.1,2.4c0.3,0,0.6,0,1-0.2V185.7z M308.4,174.9
		c-1.3,1-3.8,1-6.1,1.4c-2.2,0.4-4.1,1.2-4.1,3.8c0,2.3,1.9,3.1,4,3.1c4.4,0,6.3-2.9,6.3-4.8V174.9z"/>
	<path style="fill:#D82232;" d="M316,164.6h3.2v3.4h0.1c1.4-2.6,3.7-3.8,6.7-3.8c5.4,0,7.1,3.2,7.1,7.7v13.9h-3.4v-14.3
		c0-2.6-1.6-4.2-4.2-4.2c-4.1,0-6.1,2.8-6.1,6.6v11.9H316V164.6z"/>
	<path style="fill:#D82232;" d="M336.1,164.6h3.2v3.4h0.1c1.4-2.6,3.7-3.8,6.7-3.8c5.4,0,7.1,3.2,7.1,7.7v13.9h-3.4v-14.3
		c0-2.6-1.6-4.2-4.2-4.2c-4.1,0-6.1,2.8-6.1,6.6v11.9h-3.4V164.6z"/>
	<path style="fill:#D82232;" d="M373.1,185.8h-3.2v-3.4h-0.1c-1.4,2.6-3.7,3.8-6.7,3.8c-5.4,0-7.1-3.2-7.1-7.7v-13.9h3.4V179
		c0,2.6,1.6,4.3,4.2,4.3c4.1,0,6.1-2.8,6.1-6.6v-11.9h3.4V185.8z"/>
	<path style="fill:#D82232;" d="M395.1,185.7c-0.6,0.4-1.3,0.6-2.4,0.6c-1.7,0-2.9-1-2.9-3.3c-1.9,2.2-4.4,3.3-7.2,3.3
		c-3.7,0-6.8-1.7-6.8-5.9c0-4.8,3.4-5.8,6.9-6.5c3.7-0.7,6.9-0.5,6.9-3.1c0-3-2.4-3.5-4.6-3.5c-2.9,0-5,0.9-5.1,4h-3.4
		c0.2-5.2,4.1-7.1,8.7-7.1c3.7,0,7.7,0.9,7.7,5.8v10.9c0,1.6,0,2.4,1.1,2.4c0.3,0,0.6,0,1-0.2V185.7z M389.7,174.9
		c-1.3,1-3.8,1-6.1,1.4c-2.2,0.4-4.1,1.2-4.1,3.8c0,2.3,1.9,3.1,4,3.1c4.4,0,6.3-2.9,6.3-4.8V174.9z"/>
	<path style="fill:#D82232;" d="M401.7,164.6h4.1v3.1h-4.1v13.1c0,1.6,0.4,1.9,2.5,1.9h1.5v3.1h-2.6c-3.5,0-4.9-0.7-4.9-4.6v-13.4
		h-3.5v-3.1h3.5v-6.3h3.4V164.6z"/>
	<path style="fill:#D82232;" d="M412,160.8h-3.4v-4.2h3.4V160.8z M408.6,164.6h3.4v21.1h-3.4V164.6z"/>
	<path style="fill:#D82232;" d="M424.5,164.2c6.5,0,9.9,4.9,9.9,11.1c0,6.2-3.4,11-9.9,11c-6.5,0-9.9-4.9-9.9-11
		C414.6,169,418,164.2,424.5,164.2 M424.5,183.2c3.5,0,6.4-2.9,6.4-8c0-5.1-2.9-8-6.4-8c-3.5,0-6.4,2.9-6.4,8
		C418.1,180.3,421,183.2,424.5,183.2"/>
	<path style="fill:#D82232;" d="M436.9,164.6h3.2v3.4h0.1c1.4-2.6,3.7-3.8,6.7-3.8c5.4,0,7.1,3.2,7.1,7.7v13.9h-3.4v-14.3
		c0-2.6-1.6-4.2-4.2-4.2c-4.1,0-6.1,2.8-6.1,6.6v11.9h-3.4V164.6z"/>
</g>
</svg>
