<?xml version="1.0" encoding="utf-8"?>
<!-- Generator: Adobe Illustrator 19.2.1, SVG Export Plug-In . SVG Version: 6.00 Build 0)  -->
<!DOCTYPE svg PUBLIC "-//W3C//DTD SVG 1.1//EN" "http://www.w3.org/Graphics/SVG/1.1/DTD/svg11.dtd">
<svg version="1.1" id="Layer_1" xmlns="http://www.w3.org/2000/svg" xmlns:xlink="http://www.w3.org/1999/xlink" x="0px" y="0px"
	 viewBox="0 0 145 48.2" style="enable-background:new 0 0 145 48.2;" xml:space="preserve">
<style type="text/css">
	.st0{fill:#4C7838;}
	.st1{fill:#AFD791;}
	.st2{fill-rule:evenodd;clip-rule:evenodd;fill:#068643;}
	.st3{fill-rule:evenodd;clip-rule:evenodd;fill:#4C7838;}
</style>
<polygon class="st0" points="64.7,21.8 68.1,21.8 68.1,23.2 62.6,23.2 62.6,16.3 64.7,16.3 "/>
<g>
	<path class="st0" d="M72.4,23.3c-1.2,0-2.1-0.4-2.7-1.1c-0.6-0.7-1-1.6-1-2.6c0-1,0.3-1.9,1-2.5c0.6-0.7,1.6-1,2.8-1
		c1.2,0,2.1,0.4,2.7,1.1c0.6,0.7,0.9,1.6,0.9,2.5c0,1-0.3,1.9-1,2.6C74.6,23,73.6,23.3,72.4,23.3 M72.5,17.5c-1.1,0-1.6,0.7-1.6,2.2
		c0,1.5,0.5,2.3,1.6,2.3c1,0,1.6-0.7,1.6-2.2C74,18.2,73.5,17.5,72.5,17.5"/>
	<path class="st0" d="M84.6,18.8L82.5,19c0-1-0.5-1.5-1.4-1.5c-1.1,0-1.6,0.8-1.6,2.3c0,0.9,0.1,1.5,0.4,1.8
		c0.3,0.3,0.7,0.5,1.2,0.5c0.8,0,1.4-0.4,1.5-1.3l2,0.1c-0.1,0.8-0.5,1.5-1.2,1.9c-0.6,0.4-1.4,0.6-2.4,0.6c-1.2,0-2.1-0.3-2.8-1
		c-0.7-0.6-1.1-1.5-1.1-2.6c0-1,0.3-1.9,1-2.6c0.7-0.7,1.6-1,2.9-1C83.2,16.1,84.4,17,84.6,18.8"/>
	<path class="st0" d="M90.1,16.3l2.7,7h-2.2l-0.5-1.4h-2.8l-0.5,1.4H85l2.8-7H90.1z M87.8,20.5h1.8l-0.9-2.4L87.8,20.5z"/>
	<polygon class="st0" points="96,21.8 99.4,21.8 99.4,23.2 93.9,23.2 93.9,16.3 96,16.3 	"/>
	<path class="st1" d="M69.4,29.3V33h-0.9c-0.1-0.3-0.2-0.5-0.3-0.8c-0.6,0.6-1.4,0.9-2.4,0.9c-1.1,0-2-0.3-2.6-1
		c-0.6-0.6-0.9-1.5-0.9-2.5c0-1.1,0.3-2,1-2.7c0.7-0.7,1.6-1,2.7-1c1,0,1.7,0.2,2.3,0.7c0.6,0.4,1,1,1.1,1.7l-1.9,0.2
		c-0.2-0.8-0.7-1.3-1.5-1.3c-0.5,0-1,0.2-1.2,0.6c-0.3,0.4-0.4,1-0.4,1.7c0,0.7,0.2,1.3,0.5,1.6c0.3,0.4,0.7,0.6,1.3,0.6
		c0.4,0,0.7-0.1,1-0.3s0.4-0.5,0.4-0.9h-1.6v-1.3H69.4z"/>
	<path class="st1" d="M74.4,33.1c-1.2,0-2.1-0.4-2.7-1.1c-0.6-0.7-1-1.6-1-2.6c0-1,0.3-1.9,1-2.5c0.6-0.7,1.6-1,2.8-1
		c1.2,0,2.1,0.4,2.7,1.1c0.6,0.7,0.9,1.6,0.9,2.5c0,1-0.3,1.9-1,2.6C76.5,32.7,75.6,33.1,74.4,33.1 M74.4,27.3
		c-1.1,0-1.6,0.7-1.6,2.2c0,1.5,0.5,2.3,1.6,2.3c1,0,1.6-0.7,1.6-2.2C76,28,75.5,27.3,74.4,27.3"/>
	<polygon class="st1" points="85.8,26 83.2,33 81,33 78.4,26 80.6,26 82.3,31 84.1,26 	"/>
	<polygon class="st1" points="92.9,27.4 88.8,27.4 88.8,28.8 92.1,28.8 92.1,30.1 88.8,30.1 88.8,31.6 92.9,31.6 92.9,33 86.7,33 
		86.7,26 92.9,26 	"/>
	<path class="st1" d="M96.4,30.2V33h-2.1V26h3.8c0.7,0,1.3,0.1,1.7,0.2c0.4,0.1,0.8,0.4,1.1,0.7c0.3,0.4,0.4,0.7,0.4,1.2
		c0,0.8-0.5,1.4-1.5,1.8l1.6,3.1h-2.2l-1.3-2.8H96.4z M96.4,27.3V29h1.2c0.4,0,0.7,0,0.9-0.1c0.2,0,0.3-0.1,0.5-0.3
		c0.1-0.2,0.2-0.3,0.2-0.5c0-0.2-0.1-0.4-0.2-0.5c-0.1-0.2-0.3-0.2-0.5-0.3c-0.2,0-0.5-0.1-1-0.1H96.4z"/>
	<path class="st1" d="M109.7,26V33h-1.8l-3.4-4.7c0,0.1,0,0.2,0,0.2c0,0.1,0,0.2,0,0.3V33H103V26h2.2l2.9,4.1c0-0.2,0-0.4,0-0.5V26
		H109.7z"/>
	<polygon class="st1" points="115.4,33 113.3,27.3 113.3,33 111.6,33 111.6,26 114.7,26 116.2,30.2 117.8,26 121,26 121,33 119,33 
		119,27.3 116.8,33 	"/>
	<polygon class="st1" points="129.1,27.4 125,27.4 125,28.8 128.2,28.8 128.2,30.1 125,30.1 125,31.6 129.1,31.6 129.1,33 122.9,33 
		122.9,26 129.1,26 	"/>
	<path class="st1" d="M137.1,26V33h-1.8l-3.4-4.7c0,0.1,0,0.2,0,0.2c0,0.1,0,0.2,0,0.3V33h-1.6V26h2.2l2.9,4.1c0-0.2,0-0.4,0-0.5V26
		H137.1z"/>
	<polygon class="st1" points="144.5,26 144.5,27.4 142.4,27.4 142.4,33 140.3,33 140.3,27.4 138.1,27.4 138.1,26 	"/>
	<path class="st0" d="M68.6,37.3l-1.7,0.5c-0.2-0.5-0.7-0.8-1.5-0.8c-0.8,0-1.2,0.2-1.2,0.6c0,0.2,0.1,0.3,0.2,0.4
		c0.1,0.1,0.5,0.2,1,0.3c0.9,0.1,1.5,0.3,1.9,0.4c0.4,0.1,0.8,0.4,1,0.7c0.3,0.3,0.4,0.7,0.4,1.1c0,0.6-0.3,1.2-0.9,1.6
		c-0.6,0.5-1.5,0.7-2.7,0.7c-0.9,0-1.6-0.2-2.3-0.5c-0.6-0.3-1-0.8-1.2-1.4l1.9-0.3c0.2,0.6,0.8,1,1.8,1c0.5,0,0.8-0.1,1-0.2
		c0.2-0.1,0.3-0.3,0.3-0.5c0-0.2-0.1-0.4-0.3-0.5c-0.2-0.1-0.6-0.2-1.2-0.3c-1.1-0.2-1.9-0.4-2.4-0.8c-0.5-0.3-0.7-0.8-0.7-1.4
		c0-0.6,0.3-1.1,0.8-1.6c0.6-0.4,1.3-0.6,2.3-0.6C67,35.7,68.1,36.2,68.6,37.3"/>
	<path class="st0" d="M77.1,35.8v4.3c0,0.7-0.1,1.2-0.3,1.6c-0.2,0.3-0.6,0.6-1.1,0.8c-0.5,0.2-1.2,0.3-2.1,0.3
		c-0.8,0-1.5-0.1-2-0.3c-0.5-0.2-0.9-0.5-1.1-0.8c-0.2-0.4-0.4-0.9-0.4-1.6v-4.3h2.2v4.3c0,0.4,0,0.6,0.1,0.8
		c0.1,0.2,0.2,0.3,0.5,0.4c0.2,0.1,0.5,0.2,0.9,0.2c0.4,0,0.7-0.1,0.9-0.2c0.2-0.1,0.4-0.2,0.5-0.4c0.1-0.2,0.1-0.4,0.1-0.8v-4.3
		H77.1z"/>
	<path class="st0" d="M81,40.2v2.6h-2.1v-6.9h3.4c0.8,0,1.3,0.1,1.8,0.2c0.4,0.1,0.8,0.4,1.1,0.7c0.3,0.3,0.5,0.7,0.5,1.2
		c0,0.3-0.1,0.7-0.3,1c-0.2,0.3-0.4,0.6-0.7,0.8c-0.3,0.2-0.6,0.3-0.9,0.4c-0.3,0.1-0.7,0.1-1.4,0.1H81z M80.9,38.9h1.3
		c0.5,0,0.9-0.1,1.1-0.3c0.2-0.2,0.3-0.4,0.3-0.6c0-0.3-0.1-0.5-0.3-0.7c-0.2-0.2-0.6-0.2-1-0.2h-1.3V38.9z"/>
	<polygon class="st0" points="93.1,37.1 89,37.1 89,38.6 92.2,38.6 92.2,39.9 89,39.9 89,41.4 93.1,41.4 93.1,42.8 86.9,42.8 
		86.9,35.8 93.1,35.8 	"/>
	<path class="st0" d="M96.5,40v2.8h-2.1v-7h3.8c0.7,0,1.3,0.1,1.7,0.2c0.4,0.1,0.8,0.4,1.1,0.7c0.3,0.4,0.4,0.7,0.4,1.2
		c0,0.8-0.5,1.4-1.5,1.8l1.6,3.1h-2.2L97.9,40H96.5z M96.5,37.1v1.8h1.2c0.4,0,0.7,0,0.9-0.1c0.2,0,0.3-0.1,0.5-0.3
		c0.1-0.2,0.2-0.3,0.2-0.5c0-0.2-0.1-0.4-0.2-0.5c-0.1-0.2-0.3-0.2-0.5-0.3c-0.2,0-0.5-0.1-1-0.1H96.5z"/>
	<path class="st1" d="M30.9,35.1h-2v-4h-5.7v-4.9H22v-4.6h-3.1v-0.7h0.7v0.3h3.1V19h-2.1v-0.4h-2.4v3h-3.1v4.6h-1.2v4.9H8.2v4h-2
		l0,9.2h1.7l8.9-2.1l3.9-1l5.4-3l-0.6,0.3v-3.2h1.4v2.5l4.1-2.3L30.9,35.1z M20.7,41.1l-4.5,1.2h-6v-6.9h1.4V41h1.7v-5.6h1.4V41h1.7
		v-5.6h1.4V41h1V39h0.6v-3.6h1.4V41.1z M18.6,27.9c-1.4,0-2.6-1.2-2.6-2.6c0-1.4,1.2-2.6,2.6-2.6c1.4,0,2.6,1.2,2.6,2.6
		C21.2,26.7,20,27.9,18.6,27.9 M23.8,39v0.5l-2.2,1.2V39h0.9v-3.6h1.4V39z"/>
	<polygon class="st1" points="26.8,37.9 26.8,37.9 26.1,38.3 	"/>
	<polygon class="st1" points="18.7,23.2 18.4,23.2 18.4,25.6 19.8,25.6 19.8,25 18.7,25 	"/>
	<path class="st2" d="M28.9,10.8h0.2c0,0,0-0.1,0.1-0.1c0.2,0,0.4-0.1,0.2-0.2c-0.1-0.1-0.4-0.1-0.4-0.1l-0.4-0.1h-0.4
		c0,0-0.1-0.1-0.2-0.1c-0.1,0-0.2,0-0.2,0s-0.4,0.1-0.2,0.1h0.4c0,0,0-0.1,0.2,0c0.2,0.1,0.6,0.1,0.5,0.2c-0.1,0.1-0.1,0.3,0,0.3
		C28.9,10.9,28.9,10.8,28.9,10.8"/>
	<path class="st2" d="M34.3,14.6l0.4,0.2c0,0,0.1-0.1,0.2-0.2c0.1-0.1,0-0.4,0-0.4h-0.2c0,0-0.2,0-0.2,0.1S34.3,14.6,34.3,14.6"/>
	<path class="st2" d="M33.2,10.6h0.5l-0.2,0.2c0,0-0.1,0.1,0.1,0.1c0.2,0,0.3,0,0.3,0l0.1,0.1l0,0.1l-0.2,0.2l-0.2,0
		c0,0-0.2,0-0.2-0.1s-0.3-0.4-0.3-0.4L33.2,10.6z"/>
</g>
<g>
	<path class="st2" d="M40.9,17.3c0,0,0.7-0.1,0.7,0c0,0.1-0.1,0.1-0.2,0.2c0,0-0.1,0-0.1,0l-0.1,0.1c0,0-0.3-0.1-0.2,0l0.1,0.1
		l-0.2,0.1l-0.3-0.1c0,0,0.2-0.1,0.2-0.2C40.8,17.4,40.9,17.3,40.9,17.3"/>
	<path class="st3" d="M57.3,38.5c-0.2,0-0.6,0-1-0.1c-1.7-0.3-5-2-5.4-2.2c-0.9-0.6-2.6-1.7-3.7-2.1c-1-0.4-2.7-1.3-3.5-2.2
		c-0.6-0.6-2-1.5-2.7-1.9c-0.1-0.1-0.2-0.1-0.2-0.1s-0.1,0-0.1-0.1c0,0,0,0,0,0c-0.1,0-0.1-0.1-0.2-0.2c-0.1-0.1-0.1-0.5-0.1-0.5
		l0-1.2l-0.1-1c-0.2-1.4-0.1-2.1,0-2.5c0.1-0.4,0.3-0.8,0.2-1.6c-0.2-0.7,0-0.9,0-0.9s0.9-2.2,2.4-3.1c0.5-0.3,0.9-0.8,1.2-1.2
		l0-0.1c0,0,0,0,0,0c-0.1-0.1-0.2-0.1-0.3-0.2L43,16.8l0,0.1c-0.1,0.2-0.2,0.3-0.2,0.3s-1.8,1.7-2.3,2.3c-0.5,0.6-0.9,0.3-0.6,0
		c0.3-0.3,1.3-2.4,1.3-2.4s-0.6,0.6-0.7,0.6c-0.4,1.1-0.5,0.9-0.6,1c-0.1,0.1-0.6-0.3-0.4-1.2c0.5-0.5,1.6-0.8,1.6-0.8
		s0.5,0,0.9-0.2c0.3-0.1,0.4-0.3,1.1,0.2c0.1,0.1,0.3,0.2,0.4,0.3c0,0,0.1,0.1,0.2,0.1l0.3,0.2l0,0c1.5,1.3,3.4,0.9,3.4,0.9
		s5-0.4,4.2-0.5c-0.8,0-2.5,0-2.5,0s-3.9,0.7-4.7-0.8c-0.2-0.2-0.4-0.4-0.6-0.6c-0.1-0.1-0.3-0.2-0.4-0.3c-1.2-0.9-1.8-0.4-1.8-0.4
		s-0.5,0.5-1,0.4c-0.5-0.1-1.7,0.4-1.7,0.4l-0.5-3.3c0,0-0.2-2.3-0.1-3.4c0.1-1.1,0.6-1.7,0.6-1.7s0.6-1.1,2.3-2.3
		c-1.8,0.7-1.9,1-1.9,1s-0.8,0.6-1.8,2.5c-0.8-0.6-2.3-0.8-2.7-0.9c-0.5-0.1-2.2-0.5-2.2-0.5l-0.4,0.2c0,0,3.2,0.9,4.4,1.6
		c1.2,0.7,1.1,2.4,1.1,2.9c0,0.5,0,1.9,0,1.9l0.4,3.3l-1.8-2.8c0,0-0.6-0.6-0.5-1.4c0-0.7-0.7-1.4-0.8-1.5c-0.1-0.1-0.7-0.8-0.9-0.6
		c-0.2,0.2-0.8-0.6-0.8-0.6l-1.2-2l-0.3,0L32,9.2c0,0,0.5,0.8,1,1.9c0.4,1.1,0.7,0.6,1.2,1c0.9,0.9,0.7,1.5,0.7,1.5
		s-0.1,0.3-0.1,0.8c1,0.5,1.5,2.3,1.5,2.3l1.2,2c0,0,0.5,1.1,1,1.7c0.5,1,0.2,2,0.2,2s-0.3,1.6-0.2,3.1c-0.1,0.8,0.1,1.1,0.2,1.3
		c0,0.3-0.1,1-0.1,1.4c0,0.4,0.1,1.4,0,1.6c0,0.2-0.2,0.3-0.3,0.4c-0.1,0.1-0.2,0.4-0.4,0.5c-0.3,0.3-0.7,0.5-1.1,0.7
		c-1.1,0.4-2.7,1.5-2.7,1.5s-0.8,0.7-2.9,1.7c-2.6,0.8-6,3.3-7,4.2c-1.8,1.6-3.6,1.8-3.6,1.8s-2.2,0.3-4.3,0.6
		c-8.1,1.1-13.1,3.7-13.1,3.7c-1.2,0.6-2.5,2.1-3,2.8c-0.3,0.5-0.1,0.5-0.1,0.5c1.3-1.6,2.8-2,4.8-2.8c2.7-1,11.2-2.8,15.2-3.2
		c4.1-0.4,5.4-1.3,6.5-2.3c1.1-1,2.1-1.5,3.1-2.2c0.4-0.2,2.8-1,3.7-1c0.9,0,1,0.4,0.7,1.7C33.9,39.1,32,41,30.9,42
		c-0.7,0.8-0.9,1.1,0.1,0.3c2.4-1.9,8.5-6,9.4-6c0.9-0.1,2.7,0.6,4.5,1.3c1.8,0.6,1,0,1,0s-1.5-1-2-1.5c-0.5-0.4-0.9-1.6,4.6,0.6
		c1.7,0.7,3.2,1.3,3.2,1.3C55.3,39.5,57.5,38.7,57.3,38.5"/>
	<path class="st3" d="M43.3,16.2c0.3-0.5,0.6-1.1,0.8-1.4c0.3-0.6,0.4-0.8,0.6-1c-0.1-0.3-0.7-2.1-0.7-2.1l-0.1-0.3l0.4,0.3l0.8,2
		c0,0,0.1,0.2,0.6-0.1c0.5-0.4,1.4-1,0.8-2.6c-1.2-1.1-3.6-1.7-3.6-1.7L42,8.9l0.2-0.2l3.9,1.4c0,0,0.8,0.3,0.2-0.4
		c-0.7-0.6-1.5-1.5-1.5-1.5l0.4,0.1l1.3,0.9l-0.5-1.2c0,0,0.8,0.4,1.2,1.9c0.4,1.5,0.6,3.5-1.4,4.2c-0.9,0.2-1.4,1.9-1.4,1.9
		s-0.1,0.3-0.2,0.7"/>
	<path class="st3" d="M41.7,16.7l0.1,0.2l0.5-0.1l0,0.1c0,0-0.5,0.4,0,0.2c0.5-0.2,0.5,0,0.5,0l-0.5,1.1l-0.6,0c0,0-0.4-0.2-0.4,0
		c-0.1,0.2-0.2,0-0.2,0L40.6,18c0,0-0.4-0.1-0.4,0c0,0.1-0.3,0.1-0.4,0c-0.1-0.1-0.5-0.1-0.5-0.1l-1.1-0.2l-0.6-0.6l-0.4-0.7
		c0,0-0.2-0.2,0-0.5c0.2-0.2,0-0.3,0-0.3l-1,0l-0.1,0.5c0,0-0.3,0-0.1,0.2c0.1,0.2,0,0.2-0.2,0.2c-0.2,0-0.2-0.4-0.2-0.3
		c0,0.1-0.3,0.3-0.5,0.2c-0.2,0,0-0.3,0-0.3s-0.3,0.2-0.6,0.2c-0.2-0.1-0.1-0.2-0.1-0.2s-0.4,0-0.3-0.3c0.1-0.3,0,0-0.1-0.1
		c-0.1-0.1-0.1-0.2-0.1-0.2l0.2,0l0.2-0.1c0,0,0.2,0.1,0.4,0c0.1-0.1-0.2-0.3-0.2-0.3l-0.2,0.2l-0.2,0.1l-0.2-0.1l0,0.2
		c0,0-0.1,0.2-0.3,0.1c-0.2-0.2-0.1-0.5-0.1-0.5s-0.4,0.1-0.5,0c-0.1-0.1,0-0.3,0-0.3s-0.2,0.3-0.2,0.1c0-0.2-0.4-0.4-0.4-0.1
		c0,0.3-0.4,0.2-0.4,0.2l0-0.2c0,0-0.2-0.1-0.4,0c-0.2,0.2-0.4,0-0.4,0l0.2-0.2c0,0-0.1-0.2,0.2-0.2c0.2,0,0.2-0.1,0.2-0.1L31,14.2
		c0,0,0.2,0.1,0.2-0.2c0-0.2-0.4,0-0.4,0v0.4c0,0-0.2,0.1-0.2,0.2c0,0.1,0,0.3,0,0.3h-0.4c0,0-0.2,0.2-0.2,0c0-0.2-0.5-0.1-0.5,0.1
		c0,0.3-0.4,0.1-0.4,0.1s0.2-0.6-0.1-0.2c-0.2,0.3-0.5,0-0.5,0l-0.1-0.2c0,0-0.2,0-0.2-0.2s0.1-0.2,0.1-0.2L28.2,14l-0.1,0.1l0,0.2
		l-0.2,0l-0.3-0.1h-0.2c-0.2,0,0-0.4,0-0.4s0.2-0.1-0.4,0c-0.6,0.1-0.1-0.3-0.1-0.3s-0.3,0.1-0.5,0c-0.1-0.1,0.2-0.4,0.2-0.4
		s-0.6,0.3-0.5-0.1c-0.6,0,0-0.3,0-0.3s-0.2,0.1-0.1-0.2c0.1-0.3,0.6,0,0.6,0s-0.2,0-0.2-0.2c0-0.2,0.3-0.1,0.3-0.1s-0.3,0-0.3-0.1
		c0-0.1,0.3-0.2,0.3-0.2l-0.2-0.1c0,0-0.3,0.3-0.5,0.3c-0.2,0-0.2-0.1-0.2-0.3c0-0.2-0.4-0.1-0.4-0.1s-0.3,0-0.5-0.1
		c-0.2-0.1,0.4-0.2,0.2-0.2c-0.1,0-0.4-0.1-0.4-0.1l0-0.2h-0.2l0.2-0.2v-0.3c0,0-0.1-0.1,0.1-0.1c0.2,0,0.2,0.2,0.2,0.2l0.3-0.1
		c0,0,0.2,0,0.3,0.1c0.1,0.1,0.1,0.1,0.2,0.2c0.1,0.1,0.4,0,0.4,0s0.4-0.1,0.5,0c0.1,0.1,0,0.1,0.1,0.4c0.1,0.2,0.3,0,0.5,0
		c0.2,0,0.2-0.2,0.1-0.3c-0.1-0.1-1.2-0.4-1.3-0.4c-0.1,0-0.5-0.2-0.5-0.2s-0.1-0.2-0.1-0.4c0-0.2,0.3-0.1,0.3-0.1s0.2,0.2,0.5,0.4
		c0.2,0.2,0.3,0,0.3,0s-0.3-0.2-0.1-0.5c0.2-0.3,0.3,0.1,0.5,0.2c0.2,0.1,0.4,0,0.4,0s0-0.2-0.2-0.2c-0.2,0-0.1-0.2-0.1-0.2h0.5
		c0.2,0,0.2,0.2,0.2,0.2s0.2,0.1,0.4-0.1c0.2-0.1,0.2,0.1,0.3,0.2c0,0.1,0.3,0.1,0.3,0.1s-0.1-0.1,0.4-0.2c0.5-0.1,0.4,0.2,0.5,0.4
		c0.1,0.1,0.4,0.2,0.5,0.1c0.1-0.1,0.5,0,0.5,0s0.2,0.1,0.5,0c0.4-0.1,0.5,0.3,0.5,0.3l0.1-0.2c0,0,0.1,0.3,0.4,0.4
		c0.2,0.1,0.4-0.1,0.4-0.1s-0.3-0.2-0.4-0.4c-0.1-0.1-0.4-0.1-0.4-0.1l-0.2-0.1c0,0-0.3-0.1-0.4-0.1c-0.1,0-0.3,0.1-0.3-0.1
		c-0.4,0.1-0.5-0.1-0.5-0.1l-0.2-0.1c-0.2-0.1,0.3-0.2,0.3-0.2s-0.2,0.1-0.6,0c-0.3-0.1-0.1-0.2-0.1-0.2l0.4,0.1l0.4,0V9.1
		c0,0-0.4,0.2-0.4,0c0-0.2-0.3,0-0.3,0l-0.2,0.1c0,0,0,0,0,0.1c0,0.1-0.1,0.2-0.3,0.1c-0.3,0,0-0.4,0-0.4s0.2-0.2-0.5,0
		c-0.7,0.2-0.3-0.3-0.3-0.3s-0.2,0.2-0.3-0.1c-0.1-0.2,0.1-0.3,0.1-0.3s-0.1,0-0.3-0.1c-0.2-0.1-0.4,0-0.1-0.2
		c-0.7,0-0.1-0.3-0.1-0.3s-0.2-0.2-0.1-0.4c0.1-0.2,0.6,0.5,0.5,0.1c-0.1-0.4,0.2,0.2,0.5,0.1c0.3-0.1,0.6,0.3,0.6,0.3l0.7,0
		c0,0,0.4,0.1,0.4,0.3c0,0.2,0,0.2,0.4,0.2c0.4,0,0-0.4-0.1-0.6c-0.1-0.2-0.5-0.1-0.5-0.1s-0.2-0.1-0.5,0c-0.2,0.2-0.2-0.1-0.5-0.1
		c-0.2,0-0.2-0.1-0.4-0.2c-0.2-0.1,0-0.1-0.2-0.1c-0.2,0-0.4-0.2-0.4-0.3c0-0.1,0.6,0,0.6,0l0.6,0.1c0,0,0.1,0.2,0.4,0.4
		c0.3,0.1,0.4-0.2,0.4-0.2S30.3,7,30.4,6.7c0-0.2,0.2,0,0.2,0L30.9,7c0,0,0.1-0.1,0.1-0.3c0-0.2,0.4,0.2,0.4,0.2l0.3,0.2
		c0,0-0.1,0.2,0.3,0.2c0.4,0,0.1-0.2,0.1-0.2l-0.4-0.2c0,0-0.1-0.1-0.2-0.2c-0.1-0.1,0.2,0,0.2-0.1c0-0.1,0.4,0,0.5,0.1
		c0.1,0,0.3,0,0.5,0C33,6.5,33,6.8,33,6.8l0.3,0l0.4,0.1L34,7.1c0,0,0.2-0.1,0.2-0.2c0-0.1,0.2,0,0.2,0s0.2,0.2,0.1,0.4
		c-0.1,0.2,0.2,0.4,0.2,0.4l0.2-0.2c0,0,0.2-0.2,0.5-0.2c0.3,0,0.1,0.2,0.1,0.5c0,0.2,0.4,0.1,0.4-0.1c0-0.2,0.2-0.3,0.3-0.1
		c0.1,0.2-0.2,0.5,0.3,0.2C37,7.6,36.8,8,36.8,8s-0.1,0.2,0.4,0.2c0.5,0,0,0.5,0,0.5l0,0.3l0.3,0.3l0.6,0.5l0.3,0.2
		c0,0,0,0.3,0.3,0.3c0.2,0,0-0.2,0.2-0.5c0.2-0.2,0.2,0.4,0.2,0.4s0,0.4,0.4,0.2c0.4-0.2,0,0.4,0,0.4h0.3l0.2,0.3l0.1,0.4
		c0,0-0.8-0.1-0.5,0c0.3,0,0,0.4,0.1,0.7c0.1,0.3-0.4,0-0.4,0.2c0,0.2-0.4,0-0.5-0.1c-0.2-0.1-0.4-0.1-0.4-0.1l-0.7,0.2l-0.4,0.1
		l-0.1,0.3L37,12.9l0.2,0.1l0.4,0h0.5c0,0,0.5-0.1,0.5-0.2c0-0.1,0-0.1,0.1-0.2c0.1-0.1,0.4,0.2,0.4,0.2l-0.2,0.2l-0.4,0.1l-0.7,0.3
		l-0.3,0c0,0-0.5-0.2-0.5-0.3c0-0.1-0.2-0.2-0.2,0c0,0.2-0.4,0-0.4,0L35.6,13l0.1,0.3l0.4,0.1l0.4,0.1c0,0,0.2,0.1,0.2,0.3
		c0,0.1,0.4,0.5,0.4,0.1c0-0.4,0.4,0,0.4,0l0.3,0l0.4-0.2c0,0,0.4,0,0.5-0.2c0.1-0.2,0.3,0.1,0.3,0.1s0.2,0.2,0.3,0.2
		c0.1,0,0.4,0,0.5-0.2c0.1-0.2,0.3,0.1,0.3,0.1s-0.2,0.3,0.3,0.2c0.5-0.1,0.2,0.4,0.2,0.4s-0.1,0.5,0.1,0.3c0.2-0.2,0.3,0,0.3,0
		s-0.1,0.2,0.2,0.5c0.3,0.2-0.4,0.2-0.4,0.2h-0.2l-0.1,0.3l-0.1,0.3c0,0-0.2,0-0.2-0.2s-0.3-0.1-0.5,0.1c-0.1,0.2-0.2-0.2-0.4-0.2
		c-0.2,0,0-0.2,0.1-0.4c0.2-0.1,0-0.2-0.1-0.2c-0.1,0-0.1-0.1,0-0.4c0.1-0.2-0.4,0.1-0.5,0.1c-0.2,0-0.1,0.4-0.1,0.4
		s0.4,0.4,0.5,0.6c0.1,0.2-0.3,0.3-0.3,0.3l0.5,0.2c0,0,0.4,0,0.4-0.1c0.1-0.2,0.7,0.2,0.7,0.2 M54.8,15.9c-0.1-0.1-0.2,0-0.2,0.1
		c0,0.1-0.2,0.3-0.2,0.1c-0.1-0.1,0.1-0.1,0-0.3c-0.1-0.2-0.1,0.1-0.2-0.1c-0.1-0.2,0-0.2-0.1-0.2c-0.1,0-0.4,0.2-0.4,0.2v-0.2
		c0-0.2,0,0,0-0.1c0-0.1-0.1,0-0.1,0l-0.3,0.2c0,0,0.1,0.2-0.1,0.2c-0.1,0-0.2,0-0.3-0.1l-0.1-0.2c0,0-0.1,0-0.2,0.1
		c0,0.1,0.1,0.2,0,0.1l-0.2,0l-0.2-0.1c-0.1,0.2-0.2,0.1-0.2,0.2c0,0.1-0.2,0.2-0.4,0.2c-0.1,0-0.2-0.1-0.2-0.1s0-0.2,0.1-0.2
		c0.1,0.1,0.2-0.1,0.2-0.1s0.1,0-0.1-0.1c-0.2-0.1-0.2,0-0.3,0c-0.1,0-0.3,0.1-0.3,0.1l-0.1,0.1c0,0,0,0-0.1-0.1
		c-0.1-0.1-0.3-0.2-0.3-0.2l0,0.2V16c0,0,0,0-0.2,0c-0.2,0,0,0-0.2,0c-0.2,0-0.4,0.1-0.4,0.1v0.1c0,0.1-0.1,0-0.4,0
		c-0.3,0-0.5,0-0.5,0.1c0,0.1,0.2,0.3,0,0.3c-0.2,0-0.3,0.2-0.6,0.2c-0.4,0-0.4,0-0.7,0c-0.3,0-0.5,0-0.7,0.2
		c-0.1,0.2-0.5,0.3-0.5,0.3s-0.4-0.1-0.4,0c0,0.2,0.7,0.2,0.7,0.2s0.2,0,0.5-0.2c0.3-0.1,0.8-0.2,0.8-0.2s0.5-0.3,0.5-0.1
		c0,0.2-0.1,0.4-0.2,0.4c-0.1,0-0.5-0.1-0.6,0c-0.1,0-0.3,0.1-0.3,0.1s0,0.1-0.4,0.1c-0.3-0.1-0.8-0.1-0.9,0
		c-0.1,0.1,0.1,0.2,0.2,0.4c0.1,0.1-0.2,0.3-0.2,0.3s-0.4,0-0.3,0.2c0.1,0.2,0.2,0.1,0.5,0.1c0.2,0,0.2-0.2,0.4-0.1
		c0.2,0.1,0.3,0,0.3,0.2c0,0.2,0.4,0.1,0.4,0.1s0.1-0.3,0.4-0.2c0.2,0.1,0.2,0.4,0.2,0.4s0.3,0.2,0.5-0.1c0.1-0.3,0.3-0.6,0.3-0.6
		s0.1-0.2,0.2,0.1c0.1,0.3,0.1,0.7,0.1,0.7s-0.3,0.2,0.1,0.2c0.4,0,0.2-0.3,0.5-0.3c0.2,0,0.3-0.2,0.2,0l0,0.1c0,0,0,0.1,0.1,0.1
		c0.2,0-0.1,0.1,0.2,0c0.3-0.1,0.5-0.4,0.4,0c-0.1,0.4,0,0.4,0,0.4h0.2c0.3,0,0.2,0,0.4-0.2c0.1-0.2,0.1-0.4,0.1-0.2l0,0.1
		c0,0,0,0.3,0.2,0.1c0.2-0.1,0.1-0.2,0.2-0.1c0.1,0,0.1,0,0.1,0.1c0,0.1-0.2,0.4,0,0.2c0.2-0.1,0.1-0.2,0.3-0.3
		c0.2,0,0.3-0.1,0.3-0.1s0-0.1,0.1-0.1c0-0.1,0.1-0.1,0.2-0.2c0.1-0.1,0.3-0.2,0.3,0v0.2l-0.3,0.2c0,0-0.1-0.1-0.1,0.1
		c0,0.2,0.1,0.2,0.1,0.2s-0.5-0.1-0.3,0c0.2,0.1,0.4,0.1,0.5,0.1c0.1,0,0.3-0.2,0.5-0.2s0,0.1,0.2,0.1c0.2,0,0.2-0.1,0.3-0.1
		c0.1,0,0.2,0,0.2-0.1c0-0.2-0.1-0.2,0.1-0.2h0.2c0,0,0-0.2,0.1-0.2h0.1c0,0,0-0.1,0-0.2c0-0.1,0.3,0.3,0.1-0.1l-0.2-0.4
		c0,0,0-0.2,0.1-0.2c0.1,0,0.5,0,0.5,0l0.2,0.1c0,0-0.3,0.1-0.4,0.2c-0.1,0.1-0.5,0.2-0.1,0.3c0.1,0,0,0.1,0,0.1s-0.1,0.1-0.1,0.2
		c0,0.1,0.1,0.2,0.3,0.1c0.1,0,0.1,0.1,0.4,0.1c0.3,0,0.3-0.2,0.3-0.2l0.2,0c0,0,0.4,0.1,0.2-0.1c-0.2-0.2-0.4-0.3-0.1-0.4
		c0.2-0.1,0.4-0.1,0.2-0.2c-0.2-0.1-0.5,0-0.5-0.2c0.1-0.1,0.6-0.1,0.6-0.1s0.2,0,0-0.1c-0.2-0.2-0.5-0.2-0.5-0.2s-0.4,0.1-0.3,0
		c0.1-0.2,0.1-0.3,0-0.2c-0.1,0-0.2,0.2-0.2,0.1c0-0.1,0-0.4,0-0.4c-0.2,0.1-0.4,0.1-0.4,0.1s-0.6,0-0.4-0.1
		c0.1-0.1,0.2-0.3,0.2-0.3l-0.3-0.1c0.2-0.1,0.4,0,0.5,0c0.1-0.1,0.2-0.3,0.2-0.4c0-0.1-0.1-0.2-0.3-0.1L54.8,15.9z M42.1,10.3
		c-0.2,0-0.3,0-0.3,0v0.2c0,0,0,0-0.1,0c-0.1,0,0,0.1-0.1,0c-0.2-0.1,0.1-0.2-0.2-0.1c-0.3,0-0.2,0.2-0.2,0.2l-0.1-0.1l-0.3-0.1
		c0,0-0.1,0.1-0.1,0.2c0,0.1-0.2,0.1-0.2,0.1s0.4,0.1,0.5,0.2l0.1,0.1c0,0-0.1,0,0.2,0c0.2,0,0.4-0.1,0.4,0c0,0.1,0.2,0.1,0.2,0.1
		s0.2,0,0.4,0c0.1,0,0.3,0.1,0.3,0.1s0-0.1,0.1,0.2c0,0.3,0.2,0.2,0,0.3c-0.2,0-0.2,0.2-0.4,0c-0.2-0.1-0.1-0.2-0.2-0.3l0-0.1h-0.1
		c0,0-0.2,0.1-0.3,0c-0.1-0.1-0.2-0.2-0.2-0.2s0,0.2-0.2,0c-0.2-0.2-0.3-0.1-0.3-0.1s0,0.1-0.2,0s-0.1,0-0.2-0.1
		c-0.1,0,0.2,0.4,0.2,0.6c0,0.2,0.1,0.4,0.1,0.4l0.2-0.1c0,0,0,0,0,0.2c0,0.2,0.2,0.4,0.2,0.4s-0.1-0.2,0.3-0.2
		c0.4,0,0.4,0.2,0.4,0.2s0.3,0.1,0.3,0c0-0.1-0.1-0.3,0.1-0.2l0.2,0c0,0,0.1,0.1,0,0.2s-0.4,0.2-0.4,0.2s-0.2,0.2,0,0.2
		c0.2,0-0.1,0,0.3,0c0.4,0,0.5-0.3,0.5-0.1c0,0.2,0,0.1,0.4-0.1c0.4-0.2,0.3-0.1,0.4,0.1c0.1,0.1,0.2-0.3,0.1-0.4
		c-0.1-0.1,0-0.3,0-0.2c0.1,0.1,0.1,0.3,0.2,0.3c0.1,0,0,0.1,0,0.1s-0.1-0.1,0,0.2c0.1,0.3-0.1,0.3,0.1,0.3c0.2,0,0.3,0,0.3,0H45
		c0.2,0,0.4,0,0.2-0.2c-0.1-0.2-0.4-0.4,0-0.4c0.4,0,0.3,0.1,0.4,0l0-0.1l0.1-0.1l-0.1-0.4c0,0-0.1-0.1,0.1-0.1c0.2,0,0.2,0,0.4,0
		c0.1,0,0.6-0.1,0.2,0c-0.3,0.1-0.3,0-0.3,0.1c0,0.1,0.1,0.2,0.1,0.2L45.8,12l0.1,0.1l0.2,0.1l0.1,0.2c0,0,0.4,0.1,0.5,0.1
		s0.6,0.2,0.6,0.2s0.3,0.1,0.1,0.2c-0.1,0.1-0.3,0.2-0.3,0.2l0.1,0.2c0,0-0.3,0,0,0.2c0.3,0.1,0.4-0.1,0.5,0
		c0.1,0.1-0.3,0.2-0.3,0.3c0,0.1,0.1,0,0.2,0.1c0.1,0,0.2,0.1,0.4,0c0.2-0.1,0.3-0.2,0.3-0.1c0,0.1,0.1,0.4,0.1,0.4
		c0.2,0,0.1-0.2,0.2-0.2c0.2,0,0.2,0.2,0.4,0l0,0c0,0-0.1-0.1,0-0.2c0.1-0.1,0,0,0.1,0c0.1,0,0.2,0.1,0.2,0.1s0.2,0.1,0,0.1
		c-0.2,0-0.4,0.2-0.5,0.2s-0.8-0.2-0.8,0c0,0.2,0.2,0.1,0.4,0.2c0.2,0.1,0.2,0,0.2,0l0.2,0.2c0,0,0.1-0.5,0.2-0.2
		c0.1,0.2-0.1,0.4,0,0.4h0.1c0,0,0.3-0.2,0.4-0.1c0.1,0.1,0.1,0.2,0.1,0.2s0,0,0.2,0c0.1,0,0.1-0.3,0.3-0.1c0.1,0.2,0.4,0.2,0.4,0.2
		s0.3,0.1,0.5-0.1c0.1-0.2,0.3-0.2,0.3-0.2s0.1-0.2,0.1-0.2c-0.2-0.3-0.1-0.1-0.2-0.3c0-0.1,0-0.2,0.2-0.2c0.2,0,0.4-0.1,0.4-0.1
		s0.2-0.3,0.2,0c0,0.3-0.2,0.4-0.2,0.4l-0.1,0.1c0,0-0.2-0.2-0.1,0c0.1,0.2,0.1,0.3,0.1,0.3l-0.3,0.2c0,0,0,0,0.2,0
		c0.3,0,0.1,0,0.4,0.1c0.3,0.2,0.2,0.5,0.3,0.2c0.1-0.3,0-0.6,0.2-0.5l0.2,0.1c0,0-0.1,0.2,0.1,0.2c0.2-0.1,0.2-0.1,0.2-0.2
		c-0.1-0.2-0.1-0.3,0.1-0.3c0.2,0,0.2-0.1,0.2-0.1s0-0.1,0-0.2c0-0.1,0.9,1,0.5,0.1c0,0-0.1-0.2-0.2-0.4c-0.1-0.1-0.1-0.2-0.1-0.2
		s0.2,0,0.3-0.1c0.1-0.1-0.3-0.4-0.1-0.4c0.2,0,0.1,0.3,0.3,0.4c0.2,0,0.2-0.2,0.5,0c0.2,0.1,0.2,0.2,0.2,0.2l-0.2,0
		c0,0,0-0.2-0.3,0l-0.2,0.2l0.2,0.3c0,0,0.2,0.2,0.4,0.1c0.1,0,0.3,0,0.4,0c0.1,0.1-0.1,0.1,0.2,0c0.3-0.1,0.3-0.2,0.3-0.2L55.6,14
		c0,0,0,0,0.2-0.2c0.2-0.2,0.1-0.3,0.1-0.3l-0.3-0.2c0,0-0.7-0.1-0.4-0.2c0.4-0.1,0.4-0.3,0.4-0.3s-0.1-0.5-0.3-0.4l-0.2,0.1h-0.2
		c0,0-0.2,0-0.2-0.2c0-0.2-0.2-0.2-0.2-0.2l-0.1,0.3c0,0-0.2,0.4-0.2,0.1c0-0.3-0.1-0.3-0.1-0.4S53.8,12,53.8,12s-0.4-0.2-0.6-0.1
		L53,12c0,0-0.1-0.2-0.2-0.2c-0.1,0-0.3,0.1-0.3-0.1c0-0.1,0-0.1-0.2-0.2c-0.1,0-0.2-0.2-0.2-0.2s0-0.1,0.2,0s0.2,0.2,0.2,0v-0.3
		l0.2,0.2c0,0,0.1,0,0-0.3c0-0.2-0.2-0.3-0.2-0.3s0-0.1,0.2-0.1c0.2,0,0.3,0.1,0.3,0.1v0.2c0,0-0.3-0.2-0.1,0.1
		c0.2,0.3,0.3,0.3,0.3,0.3l0,0.1c0,0-0.2,0.2,0.2,0.1c0.3-0.1,0.4,0,0.4,0s0.2,0.2,0.2,0c0-0.2,0-0.5,0-0.5l0.2-0.1
		c0,0,0.2-0.1,0.2-0.2c0-0.1,0.1-0.4-0.2-0.4c-0.4,0-0.5,0-0.5-0.1c0-0.1,0-0.6,0-0.6s0-0.1-0.3,0.1c-0.3,0.1-0.5,0.2-0.5,0.1
		c0-0.1-0.1-0.2-0.1-0.2s0.1-0.3-0.1,0c-0.3,0.2-0.4,0.4-0.4,0.2l-0.1-0.1V9.4c0,0,0.4-0.6,0.1-0.5L52,9.1c0,0-0.1,0.2-0.3,0.1
		c-0.2-0.1-0.5-0.4-0.5-0.1c0,0.4,0.2,0.5,0.2,0.5s0.3,0,0.3,0.1c0,0.2,0.1,0.4,0,0.3c-0.1-0.1-0.1-0.3-0.3-0.2
		c-0.2,0.1-0.4,0.1-0.4,0.1l-0.1-0.2c0,0,0-0.1,0-0.2c0-0.1,0.1-0.2,0.1-0.2L50.6,9c0,0,0-0.4-0.2-0.2C50.1,8.9,50.1,9,50.1,9
		s-0.2,0.1,0,0.1c0.2,0.1,0.2,0.2,0.2,0.2l-0.6-0.1c0,0-0.2-0.2-0.3,0c-0.1,0.2,0.1,0.3-0.1,0.2C49.1,9.5,49,9.3,49,9.3s0-0.1-0.1,0
		c-0.1,0-0.6-0.2-0.2-0.3c0.4,0,0.4,0.1,0.4,0.1s0.2,0.1,0.2-0.1V8.8c0,0,0.2,0.1,0.3,0.1c0.1,0,0.1-0.2,0.1-0.3
		c0.1-0.1-0.2-0.2-0.2-0.2l-0.2-0.2c0,0-0.2-0.3-0.2-0.2c0,0.1,0,0.1-0.1,0.2c-0.1,0.1-0.4,0.1-0.4,0.1c0.2-0.1,0.2-0.1,0.1-0.2
		c-0.1-0.1-0.2-0.2-0.2-0.2s0.3-0.3-0.1-0.1c-0.4,0.1-0.1,0.1-0.3,0C48,7.6,48.1,7.5,48,7.6L48,7.7c0,0,0.1,0.3-0.2,0l-0.2-0.2
		c0,0-0.1-0.1-0.1,0l-0.2-0.1c0,0,0-0.2,0.1-0.2s0.2-0.4,0.2-0.4l0-0.1c0,0,0,0,0.1,0.1l0.1,0.1c0,0,0-0.1,0.2-0.2
		c0.2,0,0.2-0.3,0.1-0.3c-0.1,0-0.1,0-0.4,0.1c-0.3,0.1-0.4,0-0.4,0V6.1c0,0,0-0.1,0-0.2c0-0.1,0.3,0.1,0.4,0.1
		c0.1,0,0.5-0.1,0.5-0.1v0.2c0,0-0.1-0.1,0.1,0.1c0.2,0.1,0.1,0.1,0.4,0c0.2-0.1,0-0.5,0.1-0.4C49,5.9,48.9,6,49,6.2
		c0.1,0.1,0.2,0.5,0.4,0.2c0.1-0.3,0.1-0.4,0.1-0.4h0.2c0,0,0.2,0,0.2-0.1c0-0.1-0.3-0.4-0.3-0.4s-0.2-0.2,0.1-0.2
		c0.2,0,0.2,0.1,0.2-0.1l0-0.1c0,0-0.1,0.2,0.1,0.1C50.3,5.1,50.4,5,50.4,5s-0.3-0.1,0-0.2l0.2-0.1h0.1c0,0,0.4-0.1,0.3-0.2
		c-0.1-0.2-0.3-0.3-0.3-0.3S50.9,4.1,51,4l0-0.2l-0.2,0c0,0-0.1,0.2-0.1,0c0-0.2,0-0.3,0-0.3S50.5,3,50.5,3.3c0,0.3-0.1,0.5-0.1,0.5
		c-0.1-0.3-0.1-0.3-0.1-0.4l0.1-0.1L50.2,3c0,0-0.1-0.2-0.1-0.1c0,0.1-0.1,0.2-0.1,0.2s0,0.2-0.1,0l-0.1-0.2c0,0,0-0.2-0.1,0
		c-0.1,0.2-0.1,0.3-0.1,0.3s0.4,0.3,0,0.2c-0.3-0.1-0.2-0.2-0.3-0.1l-0.1,0.1c0,0,0,0-0.1,0h-0.1c0,0,0-0.3-0.3-0.2
		c-0.3,0.1-0.2-0.1,0.1-0.1c0.3,0,0.3,0,0.3-0.1V2.8c0,0-0.1-0.5-0.1-0.4c0,0.1-0.2,0.1-0.2,0.1s-0.1-0.2-0.1,0
		c0,0.2-0.3-0.1-0.3-0.1c0,0.1,0,0.2-0.1,0.2c-0.1,0-0.2-0.2-0.2-0.2s0.1,0.1,0-0.1l-0.1-0.2l-0.4,0.1c0,0,0.2,0-0.1,0.2
		c-0.3,0.1-0.5,0.1-0.5,0c0-0.1,0.1-0.1,0-0.1c-0.1,0-0.2,0.1-0.2,0.1S46.5,2,46.4,1.9c-0.1-0.2,0-0.4-0.1-0.2
		C46.3,1.9,46,2.1,46,1.7l0.1-0.4c0,0,0-0.2-0.2-0.1c-0.2,0.1-0.4,0.2-0.4,0.2s0-0.4-0.3-0.4c-0.3,0.1-0.3,0.3-0.3,0.3l0,0.2
		c0,0,0.2,0.2,0,0.2c-0.2,0-0.2-0.1-0.2-0.1s0,0-0.2,0s-0.2,0.1-0.3,0.2c-0.1,0.1-0.2,0.1-0.2,0.1s0,0-0.1-0.1
		c-0.1-0.1-0.2-0.2-0.1-0.2c0.1,0,0.6-0.2,0.6-0.2s0-0.4-0.1-0.5c-0.2-0.1-0.1-0.2-0.3-0.1C43.9,0.8,44,1,44,1
		c-0.2,0.1-0.4,0.1-0.3-0.1c0.1-0.2,0.2-0.2,0.1-0.3c-0.1-0.1,0-0.3-0.2-0.1c-0.2,0.2-0.2,0.3-0.2,0.3l-0.2,0.1l0-0.1
		c0,0,0.1-0.1,0-0.2c-0.1-0.1-0.2,0-0.2,0c-0.1,0.2,0.2,0.6-0.1,0.3c-0.3-0.2-0.1-0.5-0.4-0.4c-0.3,0.1-0.3,0.2-0.3,0.2l0,0.1
		c0,0,0.1,0.1-0.1,0c-0.2-0.1-0.4,0-0.4,0c0,0.2,0.1,0.1,0.1,0.1v0.2l-0.1,0c0,0,0,0.4-0.1,0.2l-0.2-0.2l0.1-0.4
		c0,0-0.2-0.5-0.2-0.2l-0.1,0.2l0,0.2c0,0,0.1-0.3-0.2-0.1c-0.4,0.1-0.1-0.2-0.4-0.1c-0.3,0.1,0,0.4,0,0.4l0,0.1
		c-0.2,0.4-0.1,0.5-0.2,0.4C40,1.5,40,1.3,40,1.3s0-0.7-0.1-0.5l-0.1,0.1c0,0-0.2-0.1-0.2-0.2V0.6l-0.1-0.2c0,0,0,0-0.1,0l-0.2,0.1
		l0-0.3c0,0-0.2-0.3-0.2-0.1l0,0.2c0,0-0.1,0.2-0.2,0.1c0-0.2,0.2-0.6-0.1-0.3c-0.2,0.2-0.1,0.4-0.1,0.4l0,0.1l-0.2-0.2
		c0,0-0.1-0.5-0.2-0.2c-0.1,0.3,0.2,0.6,0.2,0.6c-0.1-0.2-0.4,0-0.4,0V0.6c0,0-0.1-0.4-0.2-0.2c-0.1,0.2-0.3,0-0.1,0.2l0.1,0.2
		L37.6,1c0,0-0.1-0.4-0.2-0.1c0,0.3-0.1-0.1,0,0.3l0.1,0.4c0,0,0.1,0.5-0.1,0.1l-0.2-0.4l-0.4,0l0,0l0.1,0.5c0,0,0,0,0,0.1
		c0,0.1,0.1,0.2-0.1,0.2c-0.2,0-0.2,0-0.2,0.2c0,0.2,0.2,0.7-0.2,0.4l-0.4-0.4c0,0,0-0.2,0.1-0.3c0.1-0.1-0.1-0.4-0.2-0.4
		c-0.1,0.1-0.2,0-0.2,0.2c0,0.2-0.1,0.2-0.1,0.2l-0.1-0.2c0,0,0-0.2-0.1,0c-0.1,0.2-0.1,0.3-0.1,0.3h-0.1c0,0,0.5-0.1,0.4,0.1
		c-0.1,0.2-0.2,0.2-0.2,0.2s-0.2-0.1-0.3,0c-0.1,0.1-0.3,0.1-0.3,0.1s-0.1-0.1-0.1-0.2c0-0.1,0.1-0.1,0.1-0.2c0-0.1,0.1-0.2-0.1-0.2
		l-0.2,0c0,0-0.1,0.2-0.2,0C34.1,2,34,1.6,34,1.9c-0.1,0.2-0.1,0.5-0.1,0.5l-0.1,0.1c0,0,0.1-0.3-0.2-0.3c-0.3,0-0.3,0.2-0.3,0.2
		l-0.2-0.1c0,0,0,0.2-0.3,0.2c-0.2,0-0.1-0.1-0.2,0c-0.2,0.1,0.1,0.3-0.2,0.3c-0.4,0-0.5,0-0.5,0s-0.1,0.1,0,0.2
		c0,0.1,0.2,0.1,0.2,0.1s-0.3,0.1-0.4,0.1c-0.1,0-0.4-0.3-0.3,0c0.1,0.3,0.4,0.4,0.4,0.4s0.4-0.4,0.3-0.2c-0.1,0.2-0.2,0.1-0.2,0.3
		c0,0.2,0.1-0.1,0.1-0.1s0.1-0.1,0.2-0.1c0.1,0,0.1-0.1,0.2-0.1c0.2,0,0.3-0.3,0.3-0.1c0,0.2,0.2,0.2,0.1,0.3c-0.1,0.1-0.5,0-0.5,0
		C32.2,3.9,32.2,4,32.2,4s-0.1,0.1-0.3,0.1c-0.1-0.1,0-0.1-0.1-0.1c-0.1,0.1-0.1,0.3-0.2,0.2c-0.2-0.1,0,0-0.2-0.1
		c-0.1-0.1-0.3,0.1-0.2,0.2c0,0.1,0.2,0.3,0.1,0.3c-0.1,0,0,0.2-0.4,0c-0.3-0.2-0.2,0.1-0.3-0.2c-0.1-0.3-0.3,0-0.4,0.1
		c0,0.1-0.5,0.1-0.3,0.2C30,4.8,30,4.9,30.2,4.9c0.2,0,0.4-0.2,0.5,0c0,0.2-0.1,0.2,0,0.2C30.8,5,30.8,4.9,31,4.9L31.2,5l0.6-0.3
		c0,0,0.1,0.2,0,0.2c-0.1,0-0.1,0.1-0.1,0.1s-0.2,0-0.3,0c-0.1,0-0.7,0-0.7,0s-0.1,0-0.2,0c-0.1,0,0.1-0.1-0.2-0.1
		c-0.2,0-0.5,0-0.5,0s0.2,0,0.1,0.1c-0.1,0.1-0.1,0.1-0.3,0.1c-0.2,0-0.2,0.3-0.2,0.4c0,0.1,0.4-0.1,0.4,0.1c0,0.2-0.5,0.2-0.2,0.2
		c0.3,0,0.1,0,0.3,0c0.1,0,0.1,0.3,0.4,0.1c0.3-0.2,0.3-0.4,0.3-0.2l0,0.2c0,0,0,0.1,0.1,0.1C30.9,6.2,30.9,6,31,6c0.1,0,0,0,0.1,0
		l0.2,0c0,0,0-0.2,0.1-0.2c0.1,0,0.1-0.3,0.2-0.2c0.1,0,0.1-0.1,0.1,0c0.1,0.1-0.1,0.2-0.1,0.2l0,0.1c0,0,0.1-0.1,0.1,0
		c0,0.1-0.3,0.3,0,0.2c0.3,0,0.3-0.1,0.4-0.1h0.1c0,0,0.2-0.1,0.4-0.1c0.1,0,0.1-0.1,0.4-0.3c0.1-0.1,0.2-0.2,0.3-0.2
		c0,0,0.1-0.1,0.1-0.1l0-0.1l0.1,0.4c0,0,0.2,0.1,0.1,0.2c-0.1,0.1-0.3,0.1-0.3,0.1s-0.2,0-0.1,0.1c0,0.1,0.4,0.2,0.4,0.2
		s0.2,0.2,0.4,0c0.1-0.2-0.1-0.4,0-0.4c0.2,0,0.3-0.1,0.3,0c0,0.1,0,0.2,0.1,0.2c0.1-0.1-0.3-0.1,0.1-0.1c0.5,0.1,0.6,0,0.6,0V5.9
		c0,0-0.1,0-0.1-0.2S34.9,5.5,35,5.4c0.1-0.1,0.1-0.1,0.3-0.1c0.1,0,0.3-0.2,0.3,0.1c0,0.3-0.1,0-0.1,0.3c0,0.3,0.3,0.1,0.3,0.1
		s-0.2,0.3,0,0.4c0.3,0-0.2,0,0,0.1c0.2,0.1,0.3,0.3,0.4,0.3c0.1,0,0.2-0.2,0.2,0c0.1,0.1-0.1,0.3,0.1,0.1c0.2-0.1,0.2-0.1,0.3-0.1
		c0.1,0,0.1,0,0.1,0l0,0c0,0-0.1,0.2,0,0.4L37,7c0,0-0.3,0,0,0c0.3,0,0.2-0.1,0.3-0.1c0.1,0,0.2-0.1,0.3,0c0.1,0.1,0.2,0.1,0.2,0.1
		s-0.1,0.1,0,0.2C38,7.2,37.6,7.3,38,7.2l0.4-0.1c0,0,0.2-0.3,0.2-0.1c0,0.1-0.2,0,0,0.1c0.2,0.2-0.1,0.2,0.2,0.2
		c0.3,0,0.1,0.1,0.3,0c0.1-0.1-0.1-0.3,0.2-0.1l0.4,0.2l0,0.2H40h0.2c0.2,0,0.5,0.2,0.4,0c0-0.2-0.2-0.2-0.2-0.2l0.2-0.1l0.1-0.1
		c0,0-0.4-0.3-0.2-0.3c0.2,0,0.3,0.1,0.4,0.1h0.1c0,0-0.2,0,0,0.2c0.2,0.1,0.4,0.2,0.4,0.2l0.1,0c0,0,0-0.1,0.1-0.2
		c0.1,0,0.2,0,0.2,0s0-0.1,0.1,0l0.1,0.1c0,0,0.4,0,0.2-0.1C42.3,7,42,6.9,42.1,6.9c0.1,0-0.1,0,0.1,0c0.2,0,0.5,0,0.5,0
		s0.1,0,0,0.1c-0.1,0.1-0.1,0.4-0.1,0.4s0.2,0,0.1,0.1c-0.1,0.1-0.1,0.2-0.1,0.2s0,0,0,0.1c0,0.1-0.2,0-0.2,0s0.1-0.2-0.1-0.2
		c-0.2,0,0.1-0.2-0.2,0C41.8,8,41.9,8.1,41.7,8l-0.2-0.1c0,0-0.3-0.2-0.3,0s0.5,0.2,0,0.2c-0.5,0-0.3-0.1-0.5,0
		c-0.2,0-0.2,0-0.3,0.1C40.4,8.2,40,7.7,40,8.1c0,0.5-0.1,0.5,0,0.5c0.1,0,0.6-0.3,0.6-0.3s0.3-0.2,0.2,0c-0.1,0.3-0.2,0.2-0.3,0.3
		c-0.1,0.1-0.3,0.1-0.1,0.2c0.2,0.1,0.2,0,0.2,0.1c0,0.1,0-0.2,0,0.1c0,0.3,0.2,0.4,0,0.5c-0.1,0.1,0.2,0.1,0.2,0.1s0.2-0.3,0.1,0
		c0,0,0,0.1,0,0.1c-0.1,0.2-0.2,0.2-0.1,0.2c0.1,0,0.5-0.3,0.5-0.3c0.6,0,0.7-0.1,0.6-0.1c-0.1,0-0.4-0.1-0.2-0.1
		c0.1-0.1,0.3-0.1,0.3-0.1l0.2,0.3c0,0,0,0,0,0.1c0,0.1-0.4,0.1,0,0.1c0.4,0,0.5,0,0.5,0h0.1l0.1,0.2c-0.1,0.2-0.2,0.2-0.2,0.2
		c0.1,0.1,0.1,0.1,0.3,0.1c0.2,0,0-0.4,0.2,0c0.3,0.4,0.4,0.3,0.4,0.3s0.1-0.1,0.2-0.1c0.1,0,0.3,0.1,0.3,0.1s0.2-0.1,0.2,0.1v0.3
		h-0.2c0,0-0.1,0.1-0.3,0C44,10.7,44,10.6,44,10.6l-0.1,0c0,0-0.1,0.2-0.3,0c-0.2-0.1-0.4-0.3-0.4-0.3h-0.3l-0.3-0.2L42.1,10.3z
		 M27.6,12.8c0.1,0,0.2,0.1,0.3,0.1h0.7c0.4,0,0.2,0.1,0.1,0.2c-0.1,0.1,0,0.2,0,0.2s0.2,0.2,0.4,0.2c0.1,0,0.4,0,0.6,0
		c0.2-0.1-0.1-0.2-0.2-0.2c-0.1,0-0.3,0-0.4-0.2c-0.1-0.2,0.2-0.2,0.2-0.2s-0.4-0.2-0.5-0.3c-0.1-0.1-0.3,0-0.3,0s-0.3,0.3-0.4,0.1
		c-0.1-0.2-0.6,0-0.6,0S27.4,12.7,27.6,12.8 M31.9,12.6c0.1,0,0.2,0,0.2-0.2v-0.2c0,0-0.2-0.1-0.4-0.1c-0.1,0-0.2,0.1-0.2,0.1
		s-0.2-0.3-0.2-0.1c0,0.2,0.2,0.4,0.1,0.4c-0.1,0-0.2-0.1-0.2,0c0,0.1,0.4,0.2,0.4,0.2 M33.8,13.2c0,0-0.5,0-0.6,0c-0.1,0,0,0,0,0.1
		c0,0.1,0.2,0.2,0.4,0.2c0.1,0,0.2,0.1,0.2-0.1C33.9,13.4,33.8,13.2,33.8,13.2 M33.3,11.8l-0.2,0c0,0-0.3,0-0.4,0.1
		c-0.1,0.1-0.1,0.1,0,0.2c0.1,0.1,0.2,0,0.2,0l0.4-0.1h0.1C33.4,12,33.5,11.8,33.3,11.8 M33.4,7.7l0.2-0.1c0,0,0.5-0.1,0.2-0.2
		c-0.3-0.1-0.2,0-0.4-0.1c-0.2-0.1-0.2-0.2-0.4-0.2c-0.1,0-0.2-0.2-0.3,0C32.7,7.3,33,7.3,33,7.3s0.1,0,0.1,0.1
		c-0.1,0.1-0.1,0.2-0.1,0.2l0.2,0.1l0.2-0.1L33.4,7.7z M34.8,8.8c0,0-0.1,0.2,0,0.4c0.1,0.1,0.4,0.3,0.4,0.1c0-0.2,0-0.2-0.1-0.3
		C35,8.8,34.8,8.8,34.8,8.8 M36.1,9.9h-0.4l0,0.1l0.2,0.2l0.2,0.2c0,0-0.5-0.1-0.4,0c0.1,0.1,0.4,0.2,0.4,0.2l0.3-0.1l0.2,0l0-0.2
		L36.6,10L36.3,10L36.1,9.9z M35.4,9.9h-0.3c0,0-0.1,0-0.2-0.1c-0.1-0.1-0.4-0.1-0.4-0.1l-0.2-0.1c0,0-0.1,0.3,0,0.3
		c0.1,0,0.2,0,0.3,0c0.1,0.1,0.2,0.3,0.2,0.3s0.2,0.1,0.2,0c0-0.1,0.1-0.1,0.2-0.1c0.1,0,0.3,0,0.3,0l0.2-0.1
		C35.7,10,35.5,9.9,35.4,9.9 M32.6,9.6c0.1,0,0.5,0,0.5,0l0-0.6c0,0-0.2,0-0.4,0.1l-0.1,0.1l-0.3,0.1c0,0,0,0,0.1,0.1L32.6,9.6z
		 M36.2,12.2c0,0,0.1-0.2,0-0.2c-0.1,0.1-0.4,0.2-0.4,0.2l-0.2-0.1v-0.1c0,0,0.1,0,0-0.1l-0.1-0.1c0,0-0.2,0.1-0.2,0.2
		s0.1,0.2,0.1,0.2h0.2v0.3l0.1-0.1c0,0,0.1-0.1,0.2,0c0.1,0,0.1-0.1,0.1-0.1l0.1-0.1L36.2,12.2z M52.5,17.8c0,0-0.3,0.1-0.4,0.1
		c-0.1,0-0.1,0.2-0.1,0.2s0,0,0.1,0l0.1,0l0.3-0.1l0.2-0.1c0,0,0.2-0.1,0.1-0.2c-0.1-0.1-0.3-0.1-0.3-0.1L52.5,17.8z M53.2,16.9
		c-0.4-0.1,0-0.2,0.1-0.2c0.1,0,0.2,0,0.4,0c0.1,0,0-0.2,0-0.2s-0.1,0-0.3,0c-0.2,0-0.4,0-0.4,0s-0.2,0.1-0.3,0.3
		c-0.1,0.2,0.1,0.4,0.1,0.4S53.3,17,53.2,16.9 M50,16.5c0,0,0.1,0,0.2,0h0.2c0,0,0.1-0.2,0.1-0.4c0-0.2-0.2,0.2-0.2,0.2
		s-0.1,0-0.4,0L50,16.5z M49.1,10.6l0,0.1h0.2c0.2,0,0.4-0.1,0.4-0.4l-0.2-0.2l-0.8-0.1h-0.4c-0.3,0-0.1,0.1-0.1,0.1l0.2,0.2l0.2,0
		h0.4 M51.5,12.2l0.1,0.2c0,0,0.1,0.1,0.4,0.3c0.2,0.2,0.1,0.2,0.3,0.2c0.2,0,0,0,0-0.2c0-0.2,0,0,0,0l0.4-0.2l-0.1-0.1l-0.4-0.2
		c-0.4-0.2,0,0-0.1-0.1c-0.1-0.1-0.4,0-0.4,0h-0.3L51.5,12.2z M49.8,13c0,0,0.4-0.2,0.1-0.3l-0.2-0.1l-0.1,0.1l-0.2-0.2
		c0,0,0-0.1-0.2-0.1h-0.3l-0.3,0c0,0,0.1,0-0.2,0c-0.3,0-0.2,0.1-0.3,0l-0.1-0.1l-0.4,0L47.3,12c0,0-0.1,0-0.2,0s0,0.3,0,0.3l0.4,0
		c0,0,0.1,0.3,0.4,0.4c0.2,0,0.2,0,0.4,0h0.3c0.3,0,0.3,0.1,0.4,0.1c0.1,0,0.2,0,0.1,0.1c-0.2,0.1-0.1,0.4,0.1,0.4
		c0.2,0,0.2,0,0.3,0C49.5,13.2,49.8,13,49.8,13"/>
</g>
</svg>
