<?xml version="1.0" encoding="UTF-8"?>
<svg width="30px" height="25px" viewBox="0 0 30 25" version="1.1" xmlns="http://www.w3.org/2000/svg" xmlns:xlink="http://www.w3.org/1999/xlink">
    <!-- Generator: Sketch 43.1 (39012) - http://www.bohemiancoding.com/sketch -->
    <title>Group 2</title>
    <desc>Created with Sketch.</desc>
    <defs>
        <path d="M19.0328306,11.7178669 L19.0277516,11.7178669 C18.0495072,10.6108533 16.2210947,9.86605847 14.1269439,9.86605847 C12.2761956,9.86605847 10.6330022,10.4477805 9.60077734,11.3471441 C8.56855247,10.4477805 6.92535909,9.86605847 5.07461075,9.86605847 C2.9804606,9.86605847 1.15204867,10.6108528 0.17380404,11.7178658 L0.165700557,11.7178669 C0.165700557,5.37696851 6.58274096,0.236654756 14.4985614,0.236654756 C22.4129596,0.236654756 28.8291162,5.37512139 28.8314217,11.7144489 C27.8524363,10.6093205 26.025633,9.86605847 23.9336382,9.86605847 C21.8394874,9.86605847 20.011075,10.6108533 19.0328306,11.7178669 Z" id="path-1"></path>
    </defs>
    <g id="super-logic" stroke="none" stroke-width="1" fill="none" fill-rule="evenodd">
        <g id="5.-Rollover-–-Exclude-–-3" transform="translate(-366.000000, -530.000000)">
            <g id="cardv-1-copy-2" transform="translate(119.000000, 485.000000)">
                <g id="Group-2" transform="translate(247.728694, 45.736894)">
                    <path d="M14.875742,0.236654756 L15.2529225,21.7176323 C15.2529225,21.7176323 13.7442003,23.5694407 12.2354781,21.7176323" id="Path-6" stroke="#E74C3C" stroke-width="1.63786665" stroke-linecap="round" stroke-linejoin="round"></path>
                    <g id="Path-5" transform="translate(-0.000000, 0.740723)">
                        <mask id="mask-2" fill="white">
                            <use xlink:href="#path-1"></use>
                        </mask>
                        <use id="Mask" fill="#E74C3C" xlink:href="#path-1"></use>
                        <path d="M12.9898392,0.236654756 C12.9898392,0.236654756 8.8408532,7.2735267 9.21803375,13.940037 C9.5952143,20.6065472 19.024728,14.6807603 19.024728,14.6807603 C19.024728,14.6807603 19.7790891,6.53280334 16.3844642,0.236654756 C12.9898392,-6.05949383 12.6126587,-3.09660038 12.6126587,-3.09660038 L12.9898392,0.236654756 Z" fill="#FF6C5D" mask="url(#mask-2)"></path>
                    </g>
                </g>
            </g>
        </g>
    </g>
</svg>