<svg xmlns="http://www.w3.org/2000/svg" xmlns:xlink="http://www.w3.org/1999/xlink" version="1.1" x="0px" y="0px" viewBox="0 0 100 125" enable-background="new 0 0 100 100" xml:space="preserve"><g><path fill="#808080" d="M48.972,8.628c0-4.48-3.605-8.128-8.045-8.128c-4.442,0-8.042,3.646-8.042,8.128   c0,4.485,3.6,8.128,8.042,8.128C45.367,16.756,48.972,13.115,48.972,8.628 M67.588,73.573c-1.948-1.122-2.84-1.798-2.84-3.361   v-0.434c0-1.964,1.005-3.259,2.84-3.685V73.573z M69.979,81.365l0.152,0.087c1.732,1.002,2.818,1.612,2.818,3.401v0.654   c0,2.001-1.057,3.307-2.971,3.702V81.365z M79.076,70.732v-0.954c0-5.265-3.789-8.089-9.098-8.432v-5.489   c0-2.651-1.813-3.803-3.396-4.097c0.614-0.866,0.92-2.053,0.507-3.546l-6.952-21.513c-0.153-0.473-0.297-1.01-0.556-1.379   c-3.116-6.33-9.115-6.01-9.115-6.01h-9.723h-3.869l-6.674-0.002c-5.723,0-9.701,4.666-9.701,10.488v22.858   c0,4.823,6.765,4.823,6.765,0V30.464h2.486l-0.027,0.348v63.918c0,2.636,2.134,4.771,4.741,4.771c2.606,0,4.719-2.135,4.719-4.771   V59.229h3.491v35.501c0,2.636,2.113,4.771,4.715,4.771c2.611,0,4.75-2.135,4.75-4.771V30.812l2.271,0.007l0.002-0.003h0.064   l6.256,19.605c0.185,0.604,0.443,1.098,0.75,1.497c-2.018,0.632-2.861,2.53-2.861,3.939v0.806c0,0.667,0.535,1.208,1.195,1.208   s1.196-0.541,1.196-1.208v-0.806c0.011-0.536,0.206-1.811,1.793-1.811h2.989c0.531,0.011,1.793,0.208,1.793,1.811v5.604   c-5.426,0.46-8.973,3.509-8.973,8.574c0,2.485,0.69,5.187,3.709,6.934l5.264,3.022v9.185c-1.773-0.458-2.941-1.843-2.941-3.669   v-1.789c0-0.654-0.644-1.218-1.434-1.218H60.05c-0.791,0-1.435,0.563-1.435,1.218v1.789c0,5.179,3.771,8.034,8.973,8.421v4.349   c0,0.667,0.535,1.207,1.195,1.207s1.195-0.54,1.195-1.207v-4.346c5.424-0.376,9.098-3.302,9.098-8.424   c0-4.056-0.639-5.755-4.399-7.885l-4.698-2.677v-8.871c1.979,0.403,3.07,1.814,3.07,3.703v0.954c0,0.654,0.645,1.226,1.434,1.226   h3.164C78.438,71.958,79.076,71.387,79.076,70.732"/></g></svg>