<svg xmlns="http://www.w3.org/2000/svg" width="34" height="34" viewBox="0 0 34 34">
    <g fill="none" fill-rule="evenodd">
        <path fill="#4BB3FF" d="M17.435 17.18l9.58 13.37a16.976 16.976 0 0 0 6.883-13.665c0-5.602-2.707-10.57-6.884-13.666"/>
        <path fill="#1982CC" d="M29.003 5.113A16.84 16.84 0 0 0 16.898 0C7.566 0 0 7.574 0 16.916c0 9.343 7.566 16.917 16.898 16.917 3.766 0 7.244-1.233 10.054-3.318L17.449 17.25l9.535-13.897a16.997 16.997 0 0 1 2.02 1.76z"/>
        <path fill="#3BEDC6" d="M17.5 17.5l9.5 13c-13 9-25-2-25.5-7.5"/>
    </g>
</svg>
