<?xml version="1.0" encoding="UTF-8"?>
<svg width="33px" height="34px" viewBox="0 0 33 34" version="1.1" xmlns="http://www.w3.org/2000/svg" xmlns:xlink="http://www.w3.org/1999/xlink">
    <!-- Generator: Sketch 43.1 (39012) - http://www.bohemiancoding.com/sketch -->
    <title>Rollover</title>
    <desc>Created with Sketch.</desc>
    <defs></defs>
    <g id="super-logic" stroke="none" stroke-width="1" fill="none" fill-rule="evenodd">
        <g id="2.-Research-–-Hover" transform="translate(-1032.000000, -155.000000)">
            <g id="header">
                <g id="Group-7">
                    <g id="Group-2">
                        <g id="Group-21">
                            <g id="Group-19" transform="translate(0.308949, 0.269091)">
                                <g id="Rollover" transform="translate(1032.653922, 155.372070)">
                                    <path d="M24.7117726,11.0127823 C23.9885484,10.4897927 22.977026,11.006771 22.977026,11.8996151 L22.977026,15.230165 L16.9592674,15.230165 L16.9592674,10.3064767 C16.9592674,6.68707097 14.0143752,3.74162098 10.3944117,3.74162098 L8.20614712,3.74162098 C7.55667069,2.13875281 6.21309731,1.00632124 4.37659114,1.00632124 C1.95958443,1.00632124 8.80688476e-16,2.96590567 8.80688476e-16,5.38285041 C8.80688476e-16,7.80035291 1.95958443,9.75944155 4.37659114,9.75944155 C6.21309731,9.75944155 7.55673266,8.62756774 8.20608515,7.02407983 L10.3943497,7.02407983 C12.2045794,7.02407983 13.6768086,8.49680483 13.6768086,10.3065387 L13.6768086,15.230165 L8.20608515,15.230165 C7.55673266,13.6272348 6.21309731,12.4948033 4.37659114,12.4948033 C1.9596464,12.4948033 0,14.4543877 0,16.8713944 C0,19.2888969 1.95958443,21.2479855 4.37659114,21.2479855 C6.21309731,21.2479855 7.55673266,20.1161117 8.20608515,18.5126238 L13.6768086,18.5126238 L13.6768086,23.4362501 C13.6768086,25.2464798 12.2046413,26.718709 10.3943497,26.718709 L8.20608515,26.718709 C7.55673266,25.1157788 6.21309731,23.9833473 4.37659114,23.9833473 C1.9596464,23.9833473 0,25.9429317 0,28.3599384 C0,30.7774409 1.95958443,32.7365295 4.37659114,32.7365295 C6.21309731,32.7365295 7.55673266,31.6046557 8.20608515,30.0011678 L10.3943497,30.0011678 C14.0143132,30.0011678 16.9592055,27.0562756 16.9592055,23.4363121 L16.9592055,19.059721 L22.9769641,19.059721 L22.9769641,21.8437934 C22.9769641,22.7360798 23.9884864,23.2530581 24.7117106,22.7306262 L31.1091775,18.1106054 C31.9538687,17.5004817 31.9538687,16.2428029 31.1092394,15.6328032 L24.7117726,11.0127823 Z" id="Shape" fill="#3BA2ED" fill-rule="nonzero"></path>
                                    <circle id="Oval-5" fill="#86EDD8" cx="5" cy="5" r="5"></circle>
                                    <circle id="Oval-5" fill="#86EDD8" cx="5" cy="17" r="5"></circle>
                                    <circle id="Oval-5" fill="#86EDD8" cx="5" cy="28" r="5"></circle>
                                </g>
                            </g>
                        </g>
                    </g>
                </g>
            </g>
        </g>
    </g>
</svg>