<?xml version="1.0" encoding="UTF-8"?>
<svg width="25px" height="39px" viewBox="0 0 25 39" version="1.1" xmlns="http://www.w3.org/2000/svg" xmlns:xlink="http://www.w3.org/1999/xlink">
    <!-- Generator: Sketch 43.1 (39012) - http://www.bohemiancoding.com/sketch -->
    <title>Group 40</title>
    <desc>Created with Sketch.</desc>
    <defs>
        <path d="M17.1910515,15.2309091 L23.6910515,22.7309091 C23.6910515,22.7309091 22.1910515,24.7309091 21.6910515,37.2309091 L13.6910515,37.2309091 L13.6910515,35.6497703 C13.6910515,35.6497703 10.6910515,35.2309091 10.1910515,28.7309091 C10.1910515,28.7309091 10.1910515,23.2309091 9.1910515,20.2309091 C8.1910515,17.2309091 12.6910515,16.2309091 13.1910515,24.2309091 C13.1910515,24.2309091 13.1910515,26.7309091 15.6910515,27.7309091 L17.1910515,15.2309091 Z" id="path-1"></path>
    </defs>
    <g id="super-logic" stroke="none" stroke-width="1" fill="none" fill-rule="evenodd">
        <g id="2.-Research-–-Hover" transform="translate(-899.000000, -154.000000)">
            <g id="header">
                <g id="Group-7">
                    <g id="Group-2">
                        <g id="Group-21">
                            <g id="Group-19" transform="translate(0.308949, 0.269091)">
                                <g id="Group-40" transform="translate(899.000000, 154.000000)">
                                    <rect id="Rectangle-20" stroke="#3BA2ED" stroke-width="2" x="1" y="1" width="15" height="25" rx="3"></rect>
                                    <circle id="Oval-9" fill="#86EDD8" cx="9" cy="14" r="5"></circle>
                                    <circle id="Oval-10" fill="#3BA2ED" cx="3" cy="3" r="2"></circle>
                                    <circle id="Oval-10-Copy" fill="#3BA2ED" cx="14" cy="3" r="2"></circle>
                                    <circle id="Oval-10-Copy-2" fill="#3BA2ED" cx="3" cy="24" r="2"></circle>
                                    <g id="Path-14" stroke-linecap="round" stroke-linejoin="round">
                                        <use fill="#3BA2ED" fill-rule="evenodd" xlink:href="#path-1"></use>
                                        <path stroke="#FFFFFF" stroke-width="1" d="M15.2791608,26.9667721 C14.8319179,26.6893401 14.4856217,26.3353859 14.2254022,25.9190346 C13.9919786,25.5455569 13.8408476,25.1425407 13.7568357,24.7392835 C13.7071242,24.5006684 13.6910515,24.3206545 13.6910515,24.2309091 C13.4587995,20.4992672 12.3349886,18.1779529 10.7949616,17.6344139 C9.23738268,17.0846802 8.11902636,18.5959725 8.71670985,20.389023 C8.9926417,21.2168185 9.20920475,22.3076546 9.36996139,23.5937077 C9.51022133,24.7157873 9.60062374,25.9211527 9.65086606,27.1269685 C9.66846501,27.5493433 9.67977543,27.9414378 9.68605383,28.2930284 C9.68980684,28.5031969 9.6910515,28.6525552 9.6910515,28.7309091 C9.90092441,31.4784594 10.5463918,33.4012583 11.5086306,34.6605844 C12.0871936,35.4177762 12.6861379,35.8398742 13.1910515,36.0313691 L13.1910515,37.2309091 L13.1910515,37.7309091 L13.6910515,37.7309091 L21.6910515,37.7309091 L22.1714513,37.7309091 L22.190652,37.2508931 C22.369881,32.7701666 22.688027,29.3341904 23.1043942,26.8082293 C23.3363717,25.4008991 23.5831099,24.3711784 23.8264295,23.6628481 C23.962469,23.2668218 24.0578111,23.0752296 24.0910515,23.0309091 L24.333053,22.7082404 L24.068896,22.4034438 L17.568896,14.9034438 L16.8291821,14.0499278 L16.6946131,15.1713365 L15.2791608,26.9667721 Z"></path>
                                    </g>
                                </g>
                            </g>
                        </g>
                    </g>
                </g>
            </g>
        </g>
    </g>
</svg>