<svg xmlns="http://www.w3.org/2000/svg" width="32" height="29" viewBox="0 0 32 29">
    <g fill="none" fill-rule="evenodd" transform="translate(1 1)">
        <path fill="#86EDD8" d="M24.075 5.035c.63 0 1.246-.162 1.787-.482l5.132-2.986V.17L25.22 3.483c-.439.25-.935.382-1.438.375l-7.643-.087c-.382-.138-.687-.226-.801-.27-2.391-.525-4.26-.319-5.533.02a4.332 4.332 0 0 1-2.874-.251L0 .14v12.509l.718.388a5.736 5.736 0 0 1 2.436 2.523l-.407.326c-1.094.782-1.329 2.297-.61 3.368.4.52.966.852 1.615.964.076.006.19.013.273.013a3.18 3.18 0 0 0 .662-.044c.012.538.14 1.002.464 1.44.432.595 1.119.864 1.857.901.19.013.387.02.54.032a2.24 2.24 0 0 0 .458 1.628c.4.52.966.851 1.615.964.076.006.191.012.274.012a2.47 2.47 0 0 0 1.577-.45l.241-.182c.057.344.16.657.375.939.325.438.814.733 1.393.839.076.006.153.006.235.012.464.025 4.782-.864 4.509-1.527l.05.075c.478.695 3.39-.601 3.161-1.396.585.645 3.288-1.202 2.9-1.954.63.57 3.427-1.615 2.81-2.454l-.903-1.27 1.965-2.255a7.031 7.031 0 0 1 1.82-1.49l.966-.55v-1.49l-1.336.744a7.565 7.565 0 0 0-2.022 1.634l-2.111 2.41c-.63-.569-3.428 1.616-2.81 2.455l.031.081c-.636-.413-2.963 1.071-2.843 1.728l-.203.144c-.566-.294-1.819 1.716-1.774 2.292l-1.361-.282c-.42-.1-.89-.006-1.253.238-.445.32-.705.845-.693 1.34l-.28.175a.808.808 0 0 1-.667.157 1.018 1.018 0 0 1-.604-.376.78.78 0 0 1-.16-.657.999.999 0 0 1 .382-.595l3.033-2.248a.538.538 0 0 0 .255-.444c.019-.345-.28-.639-.623-.639a.703.703 0 0 0-.357.094l-4.845 3.456c-.28.175-.598.275-.941.219-.343-.056-.649-.225-.827-.5-.4-.52-.28-1.316.286-1.704l5.774-4.057a.618.618 0 0 0-.382-1.09.57.57 0 0 0-.47.207L8.54 20.82c-.159.07-.242.182-.362.288-.68.426-1.685.332-2.048-.144a1.252 1.252 0 0 1 .165-1.634l.566-.388 6.283-4.22a.538.538 0 0 0 .254-.444.59.59 0 0 0-.26-.52c-.223-.157-.445-.163-.68-.025l-6.729 4.501c-.044.076-.12.107-.165.144l-.649.464c-.527.394-1.335.275-1.73-.282-.4-.52-.279-1.315.287-1.703L16.158 7.66c1.017.588 1.768 1.772 1.768 1.772 1.246 3.844 2.798 3.875 3.739 3.412.49-.238.712-.808.54-1.321-.495-1.484-.782-4.358-.782-4.358-.35-.745-1.469-1.528-2.715-2.166l4.076.062 1.291-.025z"/>
        <path fill="#86EDD8" d="M31 12.5s-3.5 2-4.5 4l-12 9-2-2-2.761-2.761-2.502-2.502L4 15l13.5-9.5-1-1h5.503c1.655 0 4.154-.675 5.594-1.515L31 1v11.5z"/>
        <path fill="#86EDD8" d="M4.958 21.044a2.492 2.492 0 0 1-3.489-.556 2.497 2.497 0 0 1 .55-3.49L8.9 12l2.94 4.045-6.88 4.999z"/>
        <path fill="#86EDD8" d="M7.323 23.23c-1.018.74-2.44.519-3.187-.51a2.279 2.279 0 0 1 .5-3.188l7.056-5.126 2.686 3.698-7.055 5.125z"/>
        <path fill="#86EDD8" d="M10.135 25.111c-.8.582-1.915.413-2.499-.39-.58-.798-.41-1.91.4-2.498l7.45-5.412 2.098 2.888-7.45 5.412z"/>
        <path fill="#86EDD8" d="M13.135 27.111c-.8.582-1.915.413-2.499-.39-.58-.798-.41-1.91.4-2.498l7.45-5.412 2.098 2.888-7.45 5.412z"/>
        <path fill="#3BA2ED" stroke="#3BA2ED" d="M20.5 13s-2-1-2.5-3.5-1.5-2-2-2S3.5 16 3.5 16s-1-2.73-3.5-3.5V0l7 3s2 1 4 .5 8 0 10.5 3.5c0 0-.5 3.5 1 5 0 .5.001.75-.5 1s-1.5 0-1.5 0z"/>
        <rect width="4" height="6" x="23.381" y="15.603" fill="#3BA2ED" rx="2" transform="rotate(-36 25.381 18.603)"/>
        <rect width="4" height="6" x="20.381" y="17.603" fill="#3BA2ED" rx="2" transform="rotate(-36 22.381 20.603)"/>
        <rect width="3.297" height="4.946" x="18.139" y="20.497" fill="#3BA2ED" rx="1.649" transform="rotate(-36 19.787 22.97)"/>
        <rect width="2.833" height="4.25" x="15.978" y="22.427" fill="#3BA2ED" rx="1.417" transform="rotate(-36 17.395 24.552)"/>
    </g>
</svg>
