<?xml version="1.0" encoding="utf-8"?>
<!-- Generator: Adobe Illustrator 15.0.0, SVG Export Plug-In  -->
<!DOCTYPE svg PUBLIC "-//W3C//DTD SVG 1.1//EN" "http://www.w3.org/Graphics/SVG/1.1/DTD/svg11.dtd" [
	<!ENTITY ns_flows "http://ns.adobe.com/Flows/1.0/">
]>
<svg version="1.1"
	 xmlns="http://www.w3.org/2000/svg" xmlns:xlink="http://www.w3.org/1999/xlink" xmlns:a="http://ns.adobe.com/AdobeSVGViewerExtensions/3.0/"
	 x="0px" y="0px" width="512px" height="512px" viewBox="-11 -5 512 512" enable-background="new -11 -5 512 512"
	 xml:space="preserve">
<defs>
</defs>
<circle fill="#4C9FD7" cx="255" cy="252" r="211.501"/>
<path fill="#6EC7B4" d="M348,350c1.634,8.244,32.594,50.594,32.594,50.594l32.273,42.246C369.167,479.75,312.682,502,251,502
	C112.376,502,0,389.623,0,251C0,112.376,112.376,0,251,0c62.932,0,120.454,23.161,164.509,61.423L352,148
	C352,148,348,338.045,348,350z"/>
<line fill="#333333" stroke="#333333" stroke-width="4" stroke-miterlimit="10" x1="74.26" y1="72.781" x2="249.285" y2="247.806"/>
<line fill="#333333" stroke="#333333" stroke-width="4" stroke-miterlimit="10" x1="249.285" y1="251.293" x2="74.26" y2="426.318"/>
<path fill="#333333" d="M410.999,254c0,90.021-72.978,162.999-162.999,162.999c-90.022,0-162.999-72.978-162.999-162.999
	c0-90.022,72.977-162.999,162.999-162.999c39.749,0,76.176,14.229,104.465,37.87C388.24,158.771,410.999,203.728,410.999,254z"/>
</svg>
